# Blender 4.3.2
# www.blender.org
mtllib planchas.mtl
o Plane
v 1.000000 -0.746084 2.983401
v 1.000000 -0.746084 -2.983401
v 0.000000 -0.746084 2.983401
v 0.000000 -0.746084 -2.983401
v 1.000000 -0.746084 1.988934
v 1.000000 -0.746084 0.994467
v 1.000000 -0.746084 0.000000
v 1.000000 -0.746084 -0.994467
v 1.000000 -0.746084 -1.988934
v 0.000000 -0.746084 1.988934
v 0.000000 -0.746084 0.994467
v 0.000000 -0.746084 0.000000
v 0.000000 -0.746084 -0.994467
v 0.000000 -0.746084 -1.988934
v 0.000000 0.875214 2.983401
v 0.872651 0.747865 2.983401
v 1.000000 0.875214 -1.988934
v 0.872651 0.747865 -2.983401
v 0.000000 0.875214 -2.983401
v 0.000000 0.875214 -1.988934
v 1.000000 0.875214 1.988934
v 0.000000 0.875214 1.988934
v 0.127349 -0.618735 2.983401
v 0.872651 -0.618735 2.983401
v 0.127349 -0.618735 -2.983401
v 0.872651 -0.618735 -2.983401
v 1.000000 0.875214 -2.983401
v 1.000000 0.875214 2.983401
v 0.127349 0.747865 2.983401
v 0.134729 -0.605204 2.924320
v 0.127349 0.747865 -2.983401
v 0.865271 -0.605204 2.924320
v 0.865271 -0.605204 -2.924319
v 0.134729 -0.605204 -2.924319
v 0.134729 0.734334 -2.924319
v 0.134729 0.734334 2.924320
v 0.865271 0.734334 -2.924319
v 0.865271 0.734334 2.924320
v 0.776254 -0.522339 1.988934
v 0.223746 -0.522339 1.988934
v 0.223746 0.651469 1.988934
v 0.776254 0.651469 1.988934
v 0.223746 -0.522339 -1.988934
v 0.776254 -0.522339 -1.988934
v 0.776254 0.651469 -1.988934
v 0.223746 0.651469 -1.988934
v 0.223746 0.651469 -1.988934
v 0.223746 -0.522339 -1.988934
v 0.223746 -0.522339 1.988934
v 0.223746 0.651469 1.988934
v 0.776254 -0.522339 1.988934
v 0.776254 0.651469 1.988934
v 0.776254 -0.522339 -1.988934
v 0.776254 0.651469 -1.988934
v 0.151217 0.805556 -2.511115
v 0.151217 -0.676426 -2.511115
v 0.151217 -0.676426 2.511115
v 0.151217 0.805556 2.511115
v 0.848783 -0.676426 2.511115
v 0.848783 0.805556 2.511115
v 0.848783 -0.676426 -2.511115
v 0.848783 0.805556 -2.511115
v -1.000000 -0.746084 2.983401
v -1.000000 -0.746084 -2.983401
v -1.000000 -0.746084 1.988934
v -1.000000 -0.746084 0.994467
v -1.000000 -0.746084 0.000000
v -1.000000 -0.746084 -0.994467
v -1.000000 -0.746084 -1.988934
v -0.872651 0.747865 2.983401
v -1.000000 0.875214 -1.988934
v -0.872651 0.747865 -2.983401
v -1.000000 0.875214 1.988934
v -0.127349 -0.618735 2.983401
v -0.872651 -0.618735 2.983401
v -0.127349 -0.618735 -2.983401
v -0.872651 -0.618735 -2.983401
v -1.000000 0.875214 -2.983401
v -1.000000 0.875214 2.983401
v -0.127349 0.747865 2.983401
v -0.134729 -0.605204 2.924320
v -0.127349 0.747865 -2.983401
v -0.865271 -0.605204 2.924320
v -0.865271 -0.605204 -2.924319
v -0.134729 -0.605204 -2.924319
v -0.134729 0.734334 -2.924319
v -0.134729 0.734334 2.924320
v -0.865271 0.734334 -2.924319
v -0.865271 0.734334 2.924320
v -0.776254 -0.522339 1.988934
v -0.223746 -0.522339 1.988934
v -0.223746 0.651469 1.988934
v -0.776254 0.651469 1.988934
v -0.223746 -0.522339 -1.988934
v -0.776254 -0.522339 -1.988934
v -0.776254 0.651469 -1.988934
v -0.223746 0.651469 -1.988934
v -0.223746 0.651469 -1.988934
v -0.223746 -0.522339 -1.988934
v -0.223746 -0.522339 1.988934
v -0.223746 0.651469 1.988934
v -0.776254 -0.522339 1.988934
v -0.776254 0.651469 1.988934
v -0.776254 -0.522339 -1.988934
v -0.776254 0.651469 -1.988934
v -0.151217 0.805556 -2.511115
v -0.151217 -0.676426 -2.511115
v -0.151217 -0.676426 2.511115
v -0.151217 0.805556 2.511115
v -0.848783 -0.676426 2.511115
v -0.848783 0.805556 2.511115
v -0.848783 -0.676426 -2.511115
v -0.848783 0.805556 -2.511115
v 0.092868 0.875214 -2.081802
v 0.907132 0.875214 -2.081802
v 0.907132 0.875214 -2.890533
v 0.092868 0.875214 -2.890533
v 0.092868 0.875214 2.890533
v 0.907132 0.875214 2.890533
v 0.907132 0.875214 2.081802
v 0.092868 0.875214 2.081802
v -0.092868 0.875214 -2.081802
v -0.092868 0.875214 -2.890533
v -0.907132 0.875214 -2.890533
v -0.907132 0.875214 -2.081802
v -0.092868 0.875214 2.890533
v -0.092868 0.875214 2.081802
v -0.907132 0.875214 2.081802
v -0.907132 0.875214 2.890533
v 0.907132 0.841188 -2.081802
v 0.092868 0.841188 -2.081802
v 0.092868 0.841188 -2.890533
v 0.907132 0.841188 -2.890533
v 0.092868 0.841188 2.890533
v 0.907132 0.841188 2.890533
v 0.092868 0.841188 2.081802
v 0.907132 0.841188 2.081802
v -0.092868 0.841188 -2.081802
v -0.092868 0.841188 -2.890533
v -0.907132 0.841188 -2.081802
v -0.907132 0.841188 -2.890533
v -0.092868 0.841188 2.890533
v -0.092868 0.841188 2.081802
v -0.907132 0.841188 2.890533
v -0.907132 0.841188 2.081802
v 1.000000 -0.746084 0.497234
v 0.000000 -0.746084 0.497234
v -1.000000 -0.746084 0.497234
v 1.000000 -0.746084 -0.497233
v 0.000000 -0.746084 -0.497233
v -1.000000 -0.746084 -0.497233
v 1.000000 -0.746084 -1.491700
v 0.000000 -0.746084 -1.491700
v -1.000000 -0.746084 -1.491700
v 1.000000 -0.746084 1.491701
v 0.000000 -0.746084 1.491701
v -1.000000 -0.746084 1.491701
vn 1.0000 -0.0000 -0.0000
vn -0.0000 1.0000 -0.0000
vn -1.0000 -0.0000 -0.0000
vn -0.9923 -0.0000 -0.1239
vn -0.0000 -0.9748 -0.2233
vn -0.0000 -0.0000 1.0000
vn -0.0000 -0.0000 -1.0000
vn -0.0000 0.9748 -0.2233
vn -0.0000 0.9748 0.2233
vn 0.9923 -0.0000 -0.1239
vn -0.9923 -0.0000 0.1239
vn -0.0000 -0.9748 0.2233
vn 0.9923 -0.0000 0.1239
vn -0.9905 -0.0000 -0.1376
vn 0.9905 -0.0000 0.1376
vn -0.0000 -0.9591 0.2830
vn -0.0000 0.9591 0.2830
vn 0.9905 -0.0000 -0.1376
vn -0.0000 -0.9591 -0.2830
vn -0.0000 0.9591 -0.2830
vn -0.9905 -0.0000 0.1376
vt 0.000000 0.000000
vt 0.611873 0.166667
vt 0.888127 0.166667
vt 0.500000 0.250000
vt 1.000000 0.250000
vt 1.000000 0.333333
vt 0.500000 0.333333
vt 0.500000 0.416667
vt 1.000000 0.416667
vt 1.000000 0.500000
vt 0.500000 0.500000
vt 0.500000 0.583333
vt 1.000000 0.583333
vt 1.000000 0.666667
vt 0.500000 0.666667
vt 0.500000 0.750000
vt 1.000000 0.750000
vt 1.000000 0.833333
vt 0.500000 0.833333
vt 0.546434 0.848897
vt 0.546434 0.984436
vt 0.546434 0.984436
vt 0.546434 0.848897
vt 0.611873 0.166667
vt 1.000000 0.166667
vt 0.500000 0.166667
vt 0.888127 0.166667
vt 0.888127 0.833333
vt 0.611873 0.833333
vt 0.888127 0.833333
vt 0.611873 0.833333
vt 0.546434 0.015564
vt 0.953566 0.015564
vt 0.953566 0.848897
vt 1.000000 1.000000
vt 0.953566 0.984436
vt 0.500000 1.000000
vt 0.500000 0.000000
vt 1.000000 0.000000
vt 0.953566 0.151103
vt 0.546434 0.151103
vt 0.953566 0.984436
vt 0.546434 0.151103
vt 0.546434 0.015564
s 0
usemtl red
f 9/1/1 2/1/1 27/1/1 17/1/1
f 41/2/2 42/3/2 52/3/2 50/2/2
f 122/20/3 123/21/3 139/21/3 138/20/3
f 117/22/1 114/23/1 131/23/1 132/22/1
f 1/1/1 5/1/1 21/1/1 28/1/1
f 18/1/4 26/1/4 33/1/4 37/1/4
f 31/1/5 18/1/5 37/1/5 35/1/5
f 40/24/2 41/2/2 50/2/2 49/24/2
f 24/1/6 23/1/6 3/1/6 1/1/6
f 25/1/7 26/1/7 2/1/7 4/1/7
f 26/1/7 18/1/7 27/1/7 2/1/7
f 29/1/6 16/1/6 28/1/6 15/1/6
f 18/1/7 31/1/7 19/1/7 27/1/7
f 16/1/6 24/1/6 1/1/6 28/1/6
f 31/1/7 25/1/7 4/1/7 19/1/7
f 23/1/6 29/1/6 15/1/6 3/1/6
f 33/1/7 34/1/7 35/1/7 37/1/7
f 30/1/6 32/1/6 38/1/6 36/1/6
f 26/1/8 25/1/8 34/1/8 33/1/8
f 23/1/9 24/1/9 32/1/9 30/1/9
f 25/1/10 31/1/10 35/1/10 34/1/10
f 24/1/11 16/1/11 38/1/11 32/1/11
f 16/1/12 29/1/12 36/1/12 38/1/12
f 29/1/13 23/1/13 30/1/13 36/1/13
f 5/25/7 10/26/7 40/24/7 39/27/7
f 10/26/7 22/26/7 41/2/7 40/24/7
f 22/26/7 21/25/7 42/3/7 41/2/7
f 21/25/7 5/25/7 39/27/7 42/3/7
f 14/19/6 9/18/6 44/28/6 43/29/6
f 9/18/6 17/18/6 45/30/6 44/28/6
f 17/18/6 20/19/6 46/31/6 45/30/6
f 20/19/6 14/19/6 43/29/6 46/31/6
f 53/28/14 54/30/14 62/30/14 61/28/14
f 49/24/15 50/2/15 58/2/15 57/24/15
f 39/27/2 40/24/2 49/24/2 51/27/2
f 44/28/2 45/30/2 54/30/2 53/28/2
f 42/3/2 39/27/2 51/27/2 52/3/2
f 45/30/2 46/31/2 47/31/2 54/30/2
f 46/31/2 43/29/2 48/29/2 47/31/2
f 43/29/2 44/28/2 53/28/2 48/29/2
f 59/27/7 57/24/7 58/2/7 60/3/7
f 56/29/6 61/28/6 62/30/6 55/31/6
f 50/2/16 52/3/16 60/3/16 58/2/16
f 51/27/17 49/24/17 57/24/17 59/27/17
f 47/31/18 48/29/18 56/29/18 55/31/18
f 54/30/19 47/31/19 55/31/19 62/30/19
f 48/29/20 53/28/20 61/28/20 56/29/20
f 52/3/21 51/27/21 59/27/21 60/3/21
f 69/1/3 71/1/3 78/1/3 64/1/3
f 92/2/2 101/2/2 103/3/2 93/3/2
f 118/32/7 119/33/7 135/33/7 134/32/7
f 114/23/7 115/34/7 130/34/7 131/23/7
f 63/1/3 79/1/3 73/1/3 65/1/3
f 72/1/10 88/1/10 84/1/10 77/1/10
f 82/1/5 86/1/5 88/1/5 72/1/5
f 91/24/2 100/24/2 101/2/2 92/2/2
f 75/1/6 63/1/6 3/1/6 74/1/6
f 76/1/7 4/1/7 64/1/7 77/1/7
f 77/1/7 64/1/7 78/1/7 72/1/7
f 80/1/6 15/1/6 79/1/6 70/1/6
f 72/1/7 78/1/7 19/1/7 82/1/7
f 70/1/6 79/1/6 63/1/6 75/1/6
f 82/1/7 19/1/7 4/1/7 76/1/7
f 74/1/6 3/1/6 15/1/6 80/1/6
f 84/1/7 88/1/7 86/1/7 85/1/7
f 81/1/6 87/1/6 89/1/6 83/1/6
f 77/1/8 84/1/8 85/1/8 76/1/8
f 74/1/9 81/1/9 83/1/9 75/1/9
f 76/1/4 85/1/4 86/1/4 82/1/4
f 75/1/13 83/1/13 89/1/13 70/1/13
f 70/1/12 89/1/12 87/1/12 80/1/12
f 80/1/11 87/1/11 81/1/11 74/1/11
f 65/25/7 90/27/7 91/24/7 10/26/7
f 10/26/7 91/24/7 92/2/7 22/26/7
f 22/26/7 92/2/7 93/3/7 73/25/7
f 73/25/7 93/3/7 90/27/7 65/25/7
f 14/19/6 94/29/6 95/28/6 69/18/6
f 69/18/6 95/28/6 96/30/6 71/18/6
f 71/18/6 96/30/6 97/31/6 20/19/6
f 20/19/6 97/31/6 94/29/6 14/19/6
f 104/28/18 112/28/18 113/30/18 105/30/18
f 100/24/21 108/24/21 109/2/21 101/2/21
f 90/27/2 102/27/2 100/24/2 91/24/2
f 95/28/2 104/28/2 105/30/2 96/30/2
f 93/3/2 103/3/2 102/27/2 90/27/2
f 96/30/2 105/30/2 98/31/2 97/31/2
f 97/31/2 98/31/2 99/29/2 94/29/2
f 94/29/2 99/29/2 104/28/2 95/28/2
f 110/27/7 111/3/7 109/2/7 108/24/7
f 107/29/6 106/31/6 113/30/6 112/28/6
f 101/2/16 109/2/16 111/3/16 103/3/16
f 102/27/17 110/27/17 108/24/17 100/24/17
f 98/31/14 106/31/14 107/29/14 99/29/14
f 105/30/19 113/30/19 106/31/19 98/31/19
f 99/29/20 107/29/20 112/28/20 104/28/20
f 103/3/15 111/3/15 110/27/15 102/27/15
f 20/19/2 17/18/2 115/34/2 114/23/2
f 17/18/2 27/35/2 116/36/2 115/34/2
f 27/35/2 19/37/2 117/22/2 116/36/2
f 19/37/2 20/19/2 114/23/2 117/22/2
f 15/38/2 28/39/2 119/33/2 118/32/2
f 28/39/2 21/25/2 120/40/2 119/33/2
f 21/25/2 22/26/2 121/41/2 120/40/2
f 22/26/2 15/38/2 118/32/2 121/41/2
f 20/19/2 19/37/2 123/21/2 122/20/2
f 19/37/2 78/35/2 124/42/2 123/21/2
f 78/35/2 71/18/2 125/34/2 124/42/2
f 71/18/2 20/19/2 122/20/2 125/34/2
f 15/38/2 22/26/2 127/43/2 126/44/2
f 22/26/2 73/25/2 128/40/2 127/43/2
f 73/25/2 79/39/2 129/33/2 128/40/2
f 79/39/2 15/38/2 126/44/2 129/33/2
f 131/23/2 130/34/2 133/36/2 132/22/2
f 134/32/2 135/33/2 137/40/2 136/41/2
f 138/20/2 139/21/2 141/42/2 140/34/2
f 142/44/2 143/43/2 145/40/2 144/33/2
f 121/41/1 118/32/1 134/32/1 136/41/1
f 126/44/3 127/43/3 143/43/3 142/44/3
f 115/34/3 116/36/3 133/36/3 130/34/3
f 125/34/7 122/20/7 138/20/7 140/34/7
f 119/33/3 120/40/3 137/40/3 135/33/3
f 129/33/7 126/44/7 142/44/7 144/33/7
f 116/36/6 117/22/6 132/22/6 133/36/6
f 123/21/6 124/42/6 141/42/6 139/21/6
f 120/40/6 121/41/6 136/41/6 137/40/6
f 127/43/6 128/40/6 145/40/6 143/43/6
f 124/42/1 125/34/1 140/34/1 141/42/1
f 128/40/1 129/33/1 144/33/1 145/40/1
usemtl Material.001
f 11/7/2 147/8/2 148/9/2 66/6/2
f 11/7/2 6/6/2 146/9/2 147/8/2
f 12/11/2 150/12/2 151/13/2 67/10/2
f 12/11/2 7/10/2 149/13/2 150/12/2
f 13/15/2 153/16/2 154/17/2 68/14/2
f 13/15/2 8/14/2 152/17/2 153/16/2
f 10/26/2 156/4/2 157/5/2 65/25/2
f 10/26/2 5/25/2 155/5/2 156/4/2
usemtl Material.002
f 156/4/2 155/5/2 6/6/2 11/7/2
f 147/8/2 146/9/2 7/10/2 12/11/2
f 150/12/2 149/13/2 8/14/2 13/15/2
f 153/16/2 152/17/2 9/18/2 14/19/2
f 156/4/2 11/7/2 66/6/2 157/5/2
f 147/8/2 12/11/2 67/10/2 148/9/2
f 150/12/2 13/15/2 68/14/2 151/13/2
f 153/16/2 14/19/2 69/18/2 154/17/2
