# Blender 4.3.2
# www.blender.org
mtllib rock_4.mtl
o Cube.002
v 0.663271 -2.146757 2.826208
v 1.916003 -1.120879 3.423951
v 1.075301 0.302666 3.766070
v -0.101234 -0.526743 3.161927
v -2.160285 0.828309 2.732975
v -1.050098 1.701382 3.323296
v -1.734207 2.958789 2.242422
v -2.702538 2.096123 1.723917
v -0.952466 -2.840528 -0.074940
v -1.896232 -1.297486 -0.061094
v -2.301390 -1.115216 -2.508533
v -0.754982 -0.931112 -3.202574
v -1.081384 -2.600256 -1.980957
v -0.659819 5.644685 -1.453727
v 0.172183 6.050753 -2.956375
v -1.441810 5.251677 -2.610701
v 0.898864 -4.231792 0.734329
v 2.353804 -3.208349 1.174736
v 1.837667 -2.571352 2.803544
v 0.558566 -4.085476 1.996965
v 3.546427 5.705323 -1.329727
v 4.431891 5.123435 1.000874
v 3.877505 3.431247 2.331120
v 3.744220 0.920273 2.487759
v 6.015951 3.498436 0.568170
v 5.802062 4.610817 -0.538213
v 3.151155 -1.142315 -2.909086
v 3.573459 0.559864 -4.151733
v 4.698887 1.540094 -3.673450
v 4.823596 0.179475 -2.820519
v 0.352896 4.828048 -4.842947
v 1.191251 5.808081 -4.224199
v 2.509079 4.754492 -4.585235
v 1.366156 3.799944 -5.070802
vn 0.6879 -0.3165 0.6532
vn 0.1385 0.9873 -0.0776
vn 0.7366 0.3352 -0.5875
vn 0.0544 0.3756 0.9252
vn -0.5512 -0.6883 0.4716
vn 0.8737 -0.4638 0.1468
vn -0.7672 0.0934 -0.6346
vn 0.1462 -0.7973 -0.5857
vn -0.1783 0.8199 0.5440
vn -0.0925 -0.3296 -0.9396
vn -0.9734 0.1284 -0.1897
vn -0.2137 -0.3184 0.9235
vn -0.6283 0.2917 0.7212
vn -0.7469 -0.6280 -0.2185
vn -0.4444 0.8958 -0.0040
vn 0.5383 -0.7595 0.3652
vn 0.6520 0.4671 0.5973
vn 0.5513 -0.5069 -0.6626
vn 0.1223 0.3946 -0.9107
vn -0.7296 -0.4509 0.5142
vn -0.3279 -0.2064 0.9219
vn -0.7157 0.6472 0.2626
vn 0.0283 -0.5940 -0.8040
vn -0.4663 0.7213 -0.5122
vn 0.3886 0.0034 -0.9214
vn 0.6070 -0.7505 -0.2612
vn 0.5089 0.7691 -0.3868
vn 0.8132 -0.4064 0.4166
vn -0.1215 -0.3848 0.9150
vn -0.0653 0.6298 0.7740
vn -0.9457 -0.2958 0.1351
vn -0.3860 -0.1832 -0.9041
vn 0.9617 -0.0768 -0.2631
vn 0.4253 0.0338 0.9044
vn -0.5819 -0.8108 -0.0629
vn -0.0213 0.9681 0.2498
vn -0.8423 -0.1728 0.5105
vt 0.266623 0.706294
vt 0.210387 0.839465
vt 0.139515 0.856026
vt 0.923209 0.559606
vt 0.778988 0.527144
vt 0.929849 0.479594
vt 0.720835 0.276319
vt 0.768586 0.087766
vt 0.942336 0.282033
vt 0.079932 0.150713
vt 0.234246 0.365555
vt 0.105786 0.370506
vt 0.417320 0.733921
vt 0.582079 0.678103
vt 0.477843 0.833585
vt 0.066921 0.520601
vt 0.311073 0.515517
vt 0.066921 0.803127
vt 0.345119 0.228212
vt 0.534072 0.000000
vt 0.634188 0.041341
vt 0.349975 0.327478
vt 0.571697 0.378698
vt 0.345119 0.479594
vt 0.345119 0.114564
vt 0.301454 0.315461
vt 0.108355 0.046620
vt 0.423774 0.256534
vt 0.654384 0.107894
vt 0.650519 0.308915
vt 0.387409 0.658481
vt 0.381377 0.479594
vt 0.636627 0.573803
vt 0.060401 0.455642
vt 0.033514 0.395304
vt 0.134857 0.421297
vt 0.373763 0.771713
vt 0.345119 0.689744
vt 0.653728 0.732803
vt 0.659227 0.589811
vt 0.693544 0.655185
vt 0.921672 0.645973
vt 0.988420 0.623895
vt -0.000000 0.856851
vt 0.045510 0.904239
vt 0.170866 0.003248
vt 0.016647 0.251906
vt 0.000000 0.057575
vt 0.043772 -0.000000
vt 0.711421 0.307623
vt 0.669477 0.374827
vt 0.749701 -0.000000
vt 0.807580 0.014001
vt 0.715255 0.063695
vt 0.559902 0.872757
vt 0.436237 0.874589
vt 0.931395 0.836118
vt 1.000000 0.846928
vt 1.000000 0.482991
vt 0.715255 0.108196
vt 0.000000 0.599206
vt 0.931848 0.152943
vt 0.015605 0.515517
vt 0.000000 0.440101
vt 0.954663 0.339571
vt 0.715255 0.333394
vt 0.661740 0.874589
vt 0.704044 0.840999
vt 0.704044 0.596988
s 0
usemtl rock
f 24/1/1 2/2/1 19/3/1
f 15/4/2 21/5/2 32/6/2
f 29/7/3 33/8/3 26/9/3
f 23/10/4 6/11/4 3/12/4
f 5/13/5 10/14/5 4/15/5
f 30/16/6 25/17/6 18/18/6
f 11/19/7 16/20/7 31/21/7
f 13/22/8 27/23/8 17/24/8
f 14/25/9 7/26/9 22/27/9
f 12/28/10 34/29/10 28/30/10
f 8/31/11 16/32/11 11/33/11
f 1/34/12 2/35/12 3/12/12 4/36/12
f 5/13/13 6/37/13 7/38/13 8/31/13
f 9/39/14 10/14/14 11/33/14 12/40/14 13/41/14
f 14/42/15 15/4/15 16/43/15
f 17/44/16 18/18/16 19/3/16 20/45/16
f 21/46/17 22/27/17 23/10/17 24/47/17 25/48/17 26/49/17
f 27/23/18 28/30/18 29/50/18 30/51/18
f 31/52/19 32/53/19 33/8/19 34/54/19
f 9/39/20 1/55/20 4/15/20 10/14/20
f 3/56/21 6/37/21 5/13/21 4/15/21
f 7/57/22 14/42/22 16/43/22 8/58/22
f 27/23/23 13/22/23 12/28/23 28/30/23
f 15/4/24 32/6/24 31/59/24 16/43/24
f 33/60/25 29/50/25 28/30/25 34/29/25
f 17/44/26 27/61/26 30/16/26 18/18/26
f 32/53/27 21/62/27 26/9/27 33/8/27
f 24/1/28 19/3/28 18/18/28 25/17/28
f 1/34/29 20/63/29 19/64/29 2/35/29
f 22/27/30 7/26/30 6/11/30 23/10/30
f 10/14/31 5/13/31 8/31/31 11/33/31
f 34/29/32 12/28/32 11/19/32 31/21/32
f 25/65/33 30/66/33 29/7/33 26/9/33
f 2/35/34 24/47/34 23/10/34 3/12/34
f 20/67/35 9/39/35 13/41/35 17/68/35
f 21/5/36 15/4/36 14/42/36 22/69/36
f 9/39/37 20/67/37 1/55/37
