# Blender 4.3.2
# www.blender.org
mtllib rock_5.mtl
o Cube.003
v -2.230871 0.050970 -0.783407
v -2.342168 0.895378 1.381106
v -3.089270 1.314707 -0.462584
v -2.352319 1.654459 1.180417
v -1.952565 3.221895 1.213205
v -3.186142 1.907578 0.289578
v -1.859655 -0.321507 -3.286785
v -2.905626 1.117979 -2.479133
v -1.647529 0.470007 -3.752266
v -1.492941 4.064345 -0.235901
v -1.357342 3.944316 -1.903249
v -2.755220 2.972508 -0.951084
v 1.510839 -0.337611 0.828639
v 2.904715 0.712342 1.284583
v 1.375312 1.092077 1.864780
v 2.701932 4.923727 1.214120
v 1.847325 3.052451 2.314883
v 3.426116 4.292339 1.221419
v 2.291489 -0.752806 -0.962385
v 2.768206 0.113241 -2.017642
v 3.319399 0.305686 -0.395165
v 2.727795 5.508527 -0.333897
v 3.836983 4.570816 -0.390477
v 2.759122 4.544872 -1.458255
vn -0.1887 -0.0579 0.9803
vn 0.9611 -0.1255 0.2459
vn -0.3071 0.8776 0.3682
vn -0.9775 0.1548 -0.1432
vn 0.2305 0.2761 -0.9331
vn -0.7898 -0.5840 0.1872
vn -0.6968 0.1631 0.6985
vn -0.7439 -0.1793 -0.6438
vn -0.6154 0.7810 -0.1063
vn 0.1646 -0.5685 0.8060
vn 0.3143 0.3706 0.8740
vn 0.7522 -0.6338 -0.1804
vn 0.5247 0.6535 -0.5455
vn -0.8229 -0.5674 -0.0296
vn -0.8639 -0.2473 0.4387
vn -0.7455 0.6348 0.2033
vn -0.6019 0.4624 -0.6511
vn 0.2477 -0.7089 -0.6604
vn -0.2074 0.9077 -0.3648
vn 0.8559 -0.0165 -0.5169
vn 0.5202 -0.7734 0.3623
vn 0.6277 0.7245 0.2847
vn 0.5005 -0.1493 0.8528
vn -0.1783 -0.8086 0.5607
vn -0.2438 0.3677 0.8974
vn -0.1683 -0.9766 0.1340
vt 0.388624 0.219991
vt 0.504858 0.129674
vt 0.528364 0.470032
vt 0.472393 0.487387
vt 0.801740 0.380539
vt 0.753154 0.062312
vt 0.879389 0.067589
vt 0.926685 0.334534
vt 0.697839 0.033421
vt 0.697839 0.362335
vt 0.626291 0.400027
vt 0.631980 0.033131
vt 0.467234 0.664302
vt 0.502658 0.601750
vt 0.597385 0.685674
vt 0.473312 0.816504
vt -0.000000 0.473485
vt 0.000000 0.182467
vt 0.296102 0.093860
vt 0.348567 0.420235
vt 0.164558 0.571230
vt -0.000000 0.628636
vt 0.082987 0.520588
vt 0.580867 0.531011
vt 0.388624 0.900777
vt 0.453531 0.928556
vt 0.687249 0.632905
vt 0.695188 0.758150
vt 0.177731 0.876961
vt 0.156077 0.984784
vt 0.066080 0.897401
vt 0.570957 0.000000
vt 0.790763 0.471938
vt 0.697839 0.416633
vt 0.296509 0.000000
vt 0.388624 0.057991
vt 0.388624 0.709165
vt 0.429599 0.539843
vt 0.486880 0.546453
vt 0.606576 0.531011
vt 0.340373 0.461302
vt 0.001758 0.520588
vt 0.011751 0.136669
vt 0.697839 0.083474
vt 0.324398 0.876161
vt 0.285402 0.962345
vt 0.770368 0.000000
vt 0.887278 0.025987
vt 1.000000 0.157503
vt 0.994764 0.310368
vt 0.343524 0.520588
s 0
usemtl rock
f 15/1/1 17/2/1 4/3/1 2/4/1
f 21/5/2 23/6/2 18/7/2 14/8/2
f 22/9/3 10/10/3 5/11/3 16/12/3
f 3/13/4 6/14/4 12/15/4 8/16/4
f 9/17/5 11/18/5 24/19/5 20/20/5
f 1/21/6 2/22/6 3/23/6
f 4/3/7 5/11/7 6/24/7
f 7/25/8 8/16/8 9/26/8
f 10/27/9 11/28/9 12/15/9
f 13/29/10 14/30/10 15/31/10
f 16/12/11 17/2/11 18/32/11
f 19/33/12 20/34/12 21/5/12
f 22/35/13 23/36/13 24/19/13
f 7/25/14 1/37/14 3/13/14 8/16/14
f 2/38/15 4/39/15 6/14/15 3/13/15
f 5/40/16 10/27/16 12/15/16 6/14/16
f 11/28/17 9/26/17 8/16/17 12/15/17
f 19/41/18 7/42/18 9/17/18 20/20/18
f 10/43/19 22/35/19 24/19/19 11/18/19
f 23/6/20 21/5/20 20/34/20 24/44/20
f 13/29/21 19/45/21 21/46/21 14/30/21
f 22/47/22 16/48/22 18/7/22 23/6/22
f 17/49/23 15/50/23 14/8/23 18/7/23
f 1/21/24 13/29/24 15/31/24 2/22/24
f 16/12/25 5/11/25 4/3/25 17/2/25
f 7/51/26 19/45/26 13/29/26 1/21/26
