# Blender 4.3.2
# www.blender.org
mtllib rocks_decoration.mtl
o Cube.004
v -1.323108 -2.489805 1.302396
v -1.131124 -1.485303 2.241683
v -2.380222 -1.522689 1.610134
v -1.304255 0.328140 3.063795
v -1.515521 1.137004 2.876968
v -2.094304 0.393739 2.546134
v -2.161059 -3.293351 -0.677338
v -2.657566 -2.872585 -0.442316
v -2.362085 -2.888724 -1.477897
v -2.770977 3.515553 -2.463616
v -2.863737 3.141393 -2.885993
v -3.325174 2.449576 -2.038160
v 1.837498 -3.350727 1.403782
v 2.633184 -2.985490 1.509414
v 2.068159 -2.975623 2.105822
v 3.204715 2.599244 1.991542
v 3.054898 1.547688 2.595244
v 3.701175 2.113957 1.808402
v 1.324363 -1.460723 -3.680176
v 1.540431 -0.306125 -4.379217
v 2.057302 -0.287151 -4.214138
v 2.569190 4.379853 -2.177033
v 3.100004 3.874846 -2.412412
v 2.265167 3.975309 -3.097013
vn 0.0704 -0.2108 0.9750
vn 0.9652 -0.1761 -0.1932
vn -0.1800 0.8876 0.4240
vn -0.9754 -0.0315 0.2183
vn -0.3243 -0.0045 -0.9460
vn -0.3447 -0.6051 0.7176
vn -0.5444 0.0512 0.8373
vn -0.6848 -0.7050 -0.1844
vn -0.9005 0.4042 -0.1603
vn 0.3525 -0.8686 0.3483
vn 0.5960 0.3342 0.7301
vn 0.2748 -0.5351 -0.7989
vn 0.4827 0.7317 -0.4813
vn -0.4648 -0.7212 0.5137
vn -0.4606 -0.3670 0.8082
vn -0.7617 0.4987 0.4136
vn -0.8809 -0.2038 -0.4271
vn -0.1607 -0.6834 -0.7122
vn -0.1384 0.8739 -0.4660
vn 0.5306 0.1906 -0.8259
vn 0.6094 -0.7059 -0.3611
vn 0.7195 0.6714 0.1774
vn 0.7759 -0.2143 0.5933
vn -0.2574 -0.7060 0.6597
vn 0.0215 0.3916 0.9199
vn 0.0718 -0.9837 -0.1650
vt 0.386444 0.696441
vt 0.386444 0.459639
vt 0.589071 0.502414
vt 0.572675 0.617777
vt 0.692078 0.726265
vt 0.692078 0.459639
vt 0.875516 0.490562
vt 0.952755 0.786559
vt 0.024455 0.051208
vt 0.339862 0.014253
vt 0.313540 0.363800
vt 0.022603 0.319517
vt 0.570873 0.459640
vt 0.460936 0.449825
vt 0.420485 0.191614
vt 0.674187 0.399359
vt 0.701757 0.343602
vt 0.411849 0.123387
vt 0.483040 0.000000
vt 0.710846 0.063245
vt 0.589250 0.697170
vt 0.651656 0.639462
vt 0.615445 0.468758
vt 0.642824 0.515574
vt 0.710846 0.390149
vt 0.386444 0.132606
vt 0.232345 0.758117
vt 0.280141 0.764231
vt 0.245105 0.796116
vt 0.897066 0.462107
vt 0.940017 0.512457
vt 0.339903 0.752946
vt 0.306858 0.703236
vt 0.335425 0.691915
vt 0.309406 0.394569
vt 0.339903 0.419256
vt 0.280141 0.439273
vt 0.665191 0.800021
vt 0.692078 0.771636
vt 0.386444 0.057717
vt 0.355279 0.359311
vt 0.229791 0.444792
vt 0.006893 0.620196
vt -0.000000 0.569336
vt 0.250498 0.394568
vt 0.044507 0.009619
vt 0.348825 0.000000
vt 0.280141 0.406151
vt 0.000000 0.325249
vt 0.000000 0.054910
vt 1.000000 0.778670
vt 0.408623 0.737354
vt 0.312421 0.394568
vt 0.046390 0.375290
vt 0.052576 0.730544
s 0
usemtl rock
f 15/1/1 17/2/1 4/3/1 2/4/1
f 21/5/2 23/6/2 18/7/2 14/8/2
f 22/9/3 10/10/3 5/11/3 16/12/3
f 3/13/4 6/14/4 12/15/4 8/16/4
f 9/17/5 11/18/5 24/19/5 20/20/5
f 1/21/6 2/4/6 3/22/6
f 4/3/7 5/23/7 6/24/7
f 7/25/8 8/16/8 9/17/8
f 10/26/9 11/18/9 12/15/9
f 13/27/10 14/28/10 15/29/10
f 16/30/11 17/31/11 18/7/11
f 19/32/12 20/33/12 21/34/12
f 22/35/13 23/36/13 24/37/13
f 7/38/14 1/21/14 3/22/14 8/39/14
f 2/4/15 4/3/15 6/24/15 3/22/15
f 5/11/16 10/10/16 12/40/16 6/41/16
f 11/18/17 9/17/17 8/16/17 12/15/17
f 19/42/18 7/43/18 9/44/18 20/45/18
f 10/10/19 22/9/19 24/46/19 11/47/19
f 23/36/20 21/34/20 20/33/20 24/37/20
f 13/27/21 19/42/21 21/48/21 14/28/21
f 22/9/22 16/12/22 18/49/22 23/50/22
f 17/31/23 15/51/23 14/8/23 18/7/23
f 1/21/24 13/52/24 15/1/24 2/4/24
f 16/12/25 5/11/25 4/53/25 17/54/25
f 7/43/26 19/42/26 13/27/26 1/55/26
