# Blender 4.3.2
# www.blender.org
mtllib bug_car_front_wheel.mtl
o Cylinder.004
v -0.127663 0.053305 -0.491503
v 0.147923 -0.220982 -0.443263
v -0.127663 -0.309816 -0.385315
v 0.145192 -0.474515 -0.138825
v -0.126452 -0.478664 -0.102640
v -0.128449 -0.471992 0.115919
v 0.143544 -0.437632 0.229093
v 0.147239 -0.245269 0.419172
v -0.128858 -0.355249 0.337501
v 0.145192 0.053305 0.491335
v -0.126390 -0.052876 0.490786
v 0.147056 0.357955 0.333167
v -0.131033 0.234219 0.425407
v -0.126357 0.407618 0.269963
v 0.140744 0.493231 0.042504
v -0.127434 0.482187 0.053220
v 0.147220 0.387959 -0.307275
v -0.127497 0.453666 -0.182447
v -0.127434 0.312176 -0.371457
v 0.144220 0.091137 -0.481064
v 0.039241 -0.000075 -0.000084
v -0.069176 0.000014 -0.065337
v -0.069483 -0.059679 0.024536
v -0.069643 -0.000103 0.062851
v -0.069492 0.059481 0.024653
v 0.142490 -0.076339 -0.343407
v 0.142961 -0.201553 -0.285755
v 0.144960 0.345248 0.063086
v 0.144507 0.197921 -0.293849
v -0.126468 -0.186220 -0.298252
v -0.127359 -0.289343 -0.197866
v -0.120542 -0.342806 -0.067524
v -0.126384 -0.342043 0.077193
v -0.106733 -0.287572 0.189267
v -0.127478 -0.198411 0.289120
v -0.126974 0.060319 0.346915
v -0.110143 -0.067269 0.340768
v -0.108840 0.187962 0.289636
v -0.122936 0.343985 0.073159
v -0.126824 0.343206 -0.089587
v -0.119379 0.188531 -0.292362
v -0.127551 0.066950 -0.341952
v 0.141770 -0.325107 -0.135331
v 0.144434 -0.345653 0.062794
v 0.129518 -0.292675 0.185533
v 0.143237 -0.210748 0.280426
v 0.142695 -0.068942 0.346334
v 0.132281 0.059531 0.341547
v 0.142941 0.187787 0.296607
v 0.137513 0.291791 0.192675
v 0.140267 0.324983 -0.132731
v 0.131296 0.067781 -0.341802
v -0.110212 -0.067333 -0.340912
v -0.123536 0.286852 0.201949
v -0.110348 0.288278 -0.194540
v -0.006039 -0.058587 -0.024557
v -0.008131 -0.045712 0.044601
v -0.006548 0.025399 0.060038
v -0.006572 0.058412 -0.024079
v -0.007972 0.000314 -0.064493
vn -0.0551 -0.8573 -0.5119
vn -0.0819 -0.8818 0.4644
vn -0.0837 -0.4500 0.8891
vn -0.0879 0.2198 0.9716
vn -0.0505 0.6674 0.7430
vn -0.0259 0.9452 0.3253
vn -0.0456 0.9917 -0.1200
vn -0.0806 0.7979 -0.5973
vn -0.1107 -0.2790 -0.9539
vn -1.0000 -0.0041 0.0011
vn 0.9993 -0.0118 0.0356
vn 0.9996 0.0154 -0.0250
vn 0.9980 -0.0106 -0.0628
vn 0.9997 0.0232 -0.0110
vn 0.9901 -0.1405 -0.0011
vn 0.9999 -0.0138 0.0064
vn 1.0000 0.0001 0.0054
vn 0.9999 -0.0037 -0.0141
vn 0.9996 0.0075 -0.0270
vn -0.9976 0.0270 0.0633
vn -0.9989 0.0462 -0.0105
vn -1.0000 0.0009 0.0048
vn -0.9982 -0.0595 0.0087
vn -0.9992 0.0039 -0.0404
vn -0.9999 0.0133 -0.0088
vn -1.0000 0.0092 0.0006
vn -0.9999 0.0060 -0.0092
vn -0.8084 0.4983 -0.3133
vn -0.8822 -0.0887 -0.4625
vn -0.8914 -0.0742 0.4470
vn -0.9797 0.1713 0.1040
vn -0.9791 -0.0168 0.2026
vn 0.0218 -0.0355 -0.9991
vn -0.0403 0.9938 0.1036
vn -0.0447 0.7722 0.6339
vn 0.0095 -0.0104 0.9999
vn -0.0375 -0.7851 0.6182
vn 0.7541 -0.3514 -0.5549
vn 0.7523 0.3639 -0.5492
vn 0.1127 -0.7640 -0.6353
vn 0.0235 0.4672 -0.8838
vn 0.0699 -0.7018 0.7089
vn 0.0893 -0.2334 0.9683
vn 0.0893 0.4585 0.8842
vn 0.0674 0.9051 0.4198
vn 0.0985 0.9534 -0.2851
vn 1.0000 -0.0082 0.0052
vn 0.0547 -0.1194 -0.9913
vn 0.9995 0.0138 -0.0289
vn 1.0000 -0.0013 0.0046
vn 0.9996 0.0272 -0.0090
vn 0.9994 0.0173 0.0294
vn 0.9993 0.0231 0.0278
vn 0.9999 0.0026 0.0157
vn -1.0000 -0.0001 -0.0036
vn 0.9995 -0.0189 -0.0246
vn -0.9996 -0.0089 -0.0257
vn -1.0000 0.0086 -0.0008
vn -0.9998 -0.0158 0.0111
vn -1.0000 -0.0039 0.0026
vn -0.9999 0.0028 0.0097
vn -0.9994 -0.0335 -0.0065
vn -0.9979 -0.0268 0.0597
vn -0.9998 -0.0186 -0.0106
vn -0.9976 0.0693 -0.0056
vn 0.8881 0.2243 0.4012
vn -0.9994 -0.0074 -0.0353
vn -1.0000 -0.0038 0.0020
vn 0.7926 0.1070 0.6002
vn 0.6612 0.6226 -0.4185
vn 0.7875 0.1329 -0.6018
vn 0.7823 -0.3441 -0.5192
vn 0.8366 -0.4203 0.3513
vn -0.0257 -0.9979 0.0592
vn -0.2340 0.8325 0.5022
vn 0.0042 -0.9719 -0.2352
vn 0.0256 0.9688 -0.2465
vn 0.8906 0.4485 -0.0750
vn -0.2635 -0.8247 0.5005
vn 0.3763 0.4217 -0.8249
vn 0.8878 0.1605 -0.4314
vn 0.3389 -0.2726 0.9005
vn -0.1820 -0.2629 -0.9475
vn 0.0221 -0.8528 -0.5218
vn 0.8856 -0.2174 -0.4104
vn -0.0745 0.9548 0.2877
vn 0.8954 -0.4228 -0.1400
vn 0.0794 -0.9850 0.1532
vn 0.1614 0.8379 -0.5214
vn -0.1147 -0.5130 0.8507
vn 0.2713 0.3231 0.9066
vn 0.8915 -0.2474 0.3795
vn 0.3967 -0.4245 -0.8139
vn -0.9836 0.1467 0.1045
vn -0.9816 0.1463 -0.1227
vn -0.9754 0.2095 0.0692
vn -0.9844 0.0066 -0.1756
vn -0.9863 -0.1648 0.0118
vn -0.9820 -0.1708 -0.0803
vn -0.1694 0.2551 -0.9520
vn 0.0600 -0.9954 0.0743
vn 0.0031 -0.6865 -0.7272
vn 0.0097 0.7514 -0.6598
vn -0.0205 0.0454 -0.9988
vn -0.0622 0.5309 0.8452
vn 0.0131 0.9999 -0.0047
vn 0.0065 0.6975 0.7166
vn -0.0006 0.0077 1.0000
vn 0.0290 -0.7012 0.7123
vn 0.7531 -0.6423 0.1424
vn 0.7530 -0.1556 0.6394
vn 0.7062 0.6592 0.2585
vt 0.795735 0.970885
vt 0.784688 0.529115
vt 0.891767 0.529115
vt 0.676496 0.970885
vt 0.627666 0.529115
vt 0.705272 0.529115
vt 0.578125 0.970885
vt 0.521494 0.529115
vt 0.483233 0.970885
vt 0.421874 0.529115
vt 0.370780 0.970885
vt 0.340713 0.529115
vt 0.267302 0.970885
vt 0.267182 0.529115
vt 0.178620 0.529115
vt 0.141203 0.970885
vt 0.110932 0.529115
vt 0.922893 0.970885
vt 0.982689 0.529115
vt 0.720366 0.418822
vt 0.726487 0.479537
vt 0.838671 0.395008
vt 0.153083 0.390078
vt 0.069142 0.391827
vt 0.094808 0.314096
vt 0.281566 0.082518
vt 0.368716 0.047980
vt 0.353025 0.114543
vt 0.109071 0.155117
vt 0.079368 0.091861
vt 0.157896 0.104655
vt 0.419539 0.220826
vt 0.471024 0.316169
vt 0.405143 0.314112
vt 0.080614 0.220560
vt 0.206545 0.481199
vt 0.455649 0.141872
vt 0.226487 0.020463
vt 0.890417 0.348696
vt 0.980574 0.298842
vt 0.917246 0.281221
vt 0.978899 0.194127
vt 0.848871 0.109726
vt 0.774624 0.018964
vt 0.722941 0.081805
vt 0.586433 0.293969
vt 0.599776 0.430839
vt 0.659688 0.394236
vt 0.915199 0.209375
vt 0.919410 0.090565
vt 0.895680 0.428930
vt 0.392867 0.159153
vt 0.220944 0.083223
vt 0.217181 0.415737
vt 0.284740 0.417960
vt 0.750274 0.274795
vt 0.781794 0.415835
vt 0.783151 0.083979
vt 0.350100 0.388239
vt 0.610367 0.344646
vt 0.249965 0.250169
vt 0.276255 0.261015
vt 0.249822 0.280731
vt 0.223633 0.260774
vt 0.025434 0.529115
vt 0.032775 0.970885
vt 0.017651 0.230243
vt 0.994536 0.970885
vt 0.351365 0.455372
vt 0.776271 0.239149
vt 0.750000 0.219240
vt 0.723751 0.239096
vt 0.554004 0.119826
vt 0.584085 0.213272
vt 0.611185 0.153280
vt 0.638598 0.048815
vt 0.533332 0.337130
vt 0.516172 0.225560
vt 0.891302 0.156226
vt 0.658372 0.107551
vt 0.271962 0.228474
vt 0.238934 0.223901
s 0
usemtl rin.001
f 22/56/31 53/57/31 30/22/31
f 22/56/32 41/48/32 42/20/32
f 47/26/33 37/58/33 48/53/33
f 32/41/34 44/32/34 43/34/34
f 31/39/35 43/34/35 27/59/35
f 53/57/36 26/55/36 52/54/36
f 55/60/37 29/23/37 51/25/37
f 21/61/38 56/62/38 60/63/38
f 21/61/39 60/63/39 59/64/39
f 23/70/55 24/71/55 25/72/55 22/56/55
f 26/55/66 60/63/66 56/62/66 27/59/66
f 51/25/74 28/35/74 39/74/74 40/46/74
f 41/48/75 22/56/75 59/64/75 29/23/75
f 42/20/76 52/54/76 60/63/76 22/56/76
f 53/57/77 22/56/77 60/63/77 26/55/77
f 44/32/78 56/62/78 57/81/78 45/52/78
f 30/22/79 27/59/79 56/62/79 22/56/79
f 31/39/80 22/56/80 56/62/80 43/34/80
f 47/26/81 46/28/81 57/81/81 58/82/81
f 56/62/82 23/70/82 32/41/82 43/34/82
f 33/49/83 23/70/83 56/62/83 44/32/83
f 35/43/84 23/70/84 57/81/84 46/28/84
f 58/82/85 49/31/85 48/53/85
f 37/58/86 47/26/86 58/82/86 24/71/86
f 50/29/87 58/82/87 59/64/87 28/35/87
f 36/45/88 24/71/88 58/82/88 48/53/88
f 38/80/89 49/31/89 58/82/89 25/72/89
f 54/75/90 25/72/90 58/82/90 50/29/90
f 40/46/91 25/72/91 59/64/91 51/25/91
f 29/23/92 59/64/92 60/63/92 52/54/92
f 55/60/93 51/25/93 59/64/93 22/56/93
f 32/41/94 23/70/94 22/56/94 31/39/94
f 37/58/95 24/71/95 23/70/95 35/43/95
f 23/70/96 33/49/96 34/79/96
f 38/80/97 25/72/97 24/71/97 36/45/97
f 55/60/98 22/56/98 25/72/98 40/46/98
f 25/72/99 54/75/99 39/74/99
f 39/74/100 28/35/100 59/64/100 25/72/100
f 54/75/102 50/29/102 49/31/102 38/80/102
f 35/43/103 46/28/103 45/52/103 34/79/103
f 48/53/104 37/58/104 36/45/104
f 34/79/105 45/52/105 57/81/105 23/70/105
f 44/32/106 32/41/106 33/49/106
f 30/22/107 31/39/107 27/59/107
f 42/20/108 53/57/108 52/54/108
f 55/60/109 41/48/109 29/23/109
f 21/61/110 57/81/110 56/62/110
f 21/61/111 58/82/111 57/81/111
f 21/61/112 59/64/112 58/82/112
usemtl caucho.001
f 4/1/1 5/2/1 3/3/1
f 7/4/2 9/5/2 6/6/2
f 9/5/3 8/7/3 11/8/3
f 10/9/4 13/10/4 11/8/4
f 13/10/5 12/11/5 14/12/5
f 15/13/6 16/14/6 14/12/6
f 15/13/7 18/15/7 16/14/7
f 17/16/8 19/17/8 18/15/8
f 2/18/9 3/3/9 1/19/9
f 42/20/10 1/21/10 30/22/10
f 29/23/11 17/24/11 51/25/11
f 47/26/12 8/27/12 46/28/12
f 50/29/13 12/30/13 49/31/13
f 44/32/14 4/33/14 43/34/14
f 28/35/15 12/30/15 50/29/15
f 29/23/16 20/36/16 17/24/16
f 46/28/17 7/37/17 44/32/17
f 49/31/18 10/38/18 47/26/18
f 46/28/19 8/27/19 7/37/19
f 31/39/20 5/40/20 32/41/20
f 32/41/21 5/40/21 6/42/21
f 35/43/22 11/44/22 36/45/22
f 40/46/23 19/47/23 41/48/23
f 32/41/24 6/42/24 33/49/24
f 33/49/25 6/42/25 9/50/25
f 30/22/26 3/51/26 31/39/26
f 33/49/27 9/50/27 35/43/27
f 45/52/28 46/28/28 44/32/28
f 48/53/29 49/31/29 47/26/29
f 52/54/30 26/55/30 29/23/30
f 2/18/40 4/1/40 3/3/40
f 1/65/41 19/17/41 17/16/41 20/66/41
f 9/5/42 7/4/42 8/7/42
f 8/7/43 10/9/43 11/8/43
f 10/9/44 12/11/44 13/10/44
f 12/11/45 15/13/45 14/12/45
f 15/13/46 17/16/46 18/15/46
f 15/67/47 28/35/47 51/25/47 17/24/47
f 20/68/48 2/18/48 1/19/48
f 47/26/49 10/38/49 8/27/49
f 44/32/50 7/37/50 4/33/50
f 28/35/51 15/67/51 12/30/51
f 26/55/52 27/59/52 2/69/52
f 2/69/53 27/59/53 43/34/53 4/33/53
f 20/36/54 29/23/54 26/55/54 2/69/54
f 49/31/56 12/30/56 10/38/56
f 14/73/57 39/74/57 54/75/57 13/76/57
f 35/43/58 9/50/58 11/44/58
f 18/77/59 40/46/59 39/74/59 16/78/59
f 40/46/60 18/77/60 19/47/60
f 30/22/61 1/21/61 3/51/61
f 39/74/62 14/73/62 16/78/62
f 41/48/63 19/47/63 1/21/63
f 36/45/64 11/44/64 13/76/64
f 42/20/65 41/48/65 1/21/65
f 54/75/67 36/45/67 13/76/67
f 31/39/68 3/51/68 5/40/68
f 53/57/69 42/20/69 30/22/69
f 34/79/70 33/49/70 35/43/70
f 37/58/71 35/43/71 36/45/71
f 38/80/72 36/45/72 54/75/72
f 55/60/73 40/46/73 41/48/73
f 6/6/101 5/2/101 4/1/101 7/4/101
