# Blender 4.3.2
# www.blender.org
mtllib monster_pink_wheel.mtl
o Circle.008
v -0.448573 0.807236 0.616028
v -0.396823 -0.135066 0.234587
v -0.379221 -0.630081 0.209711
v -0.423854 0.060064 0.413615
v -0.360777 0.131361 0.767462
v -0.475029 -1.075991 0.039107
v -0.361284 -0.176588 -0.770037
v -0.399847 0.255669 -0.149831
v -0.360243 0.130068 -0.766111
v -0.463592 -0.387142 0.957300
v -0.473229 -0.430745 -0.941175
v -0.464988 0.842406 -0.557922
v -0.482423 1.006257 0.256508
v -0.474190 0.402711 0.946352
v -0.478379 -0.846370 0.616751
v -0.476488 -0.849265 -0.612098
v -0.501421 0.374212 1.196631
v -0.499003 1.257521 0.118196
v -0.501468 0.371689 -1.205652
v -0.500234 0.802027 -0.976883
v -0.499450 1.115517 0.587058
v -0.504047 -1.192348 0.366149
v -0.507554 -1.243296 -0.109117
v -0.503556 -1.102855 -0.590518
v -0.501634 -0.700648 -1.053429
v -0.500336 0.805239 0.965603
v -0.499243 -0.112540 1.246293
v -0.503410 -0.959637 0.796410
v -0.498933 1.175780 -0.491871
v -0.361806 -0.085003 -0.046066
v -0.366327 0.051519 0.057722
v -0.502226 -0.116783 -1.254097
v -0.502898 -0.580486 1.105140
v -0.361552 -0.176576 0.771518
v -0.361137 0.683099 0.306439
v -0.396515 0.251606 0.151361
v -0.369869 -0.658661 -0.229096
v -0.396902 -0.134344 -0.235246
v -0.361153 0.683115 -0.304917
v -0.405421 0.050084 -0.423996
v -0.464570 0.397780 -0.950940
v 0.499578 -0.804932 0.616447
v 0.391504 0.629818 0.223324
v 0.255717 0.016072 0.434952
v 0.516410 -0.823036 -0.615739
v 0.529483 1.073442 0.039107
v 0.509428 0.342796 -0.944214
v -0.110318 -0.169684 -0.188730
v 0.351920 -0.008764 -0.586216
v -0.044427 0.016072 0.000767
v 0.518466 0.387077 0.957552
v 0.536877 -1.008806 0.256508
v 0.528414 -0.401642 0.947517
v 0.534300 0.846958 0.616979
v 0.532401 0.849013 -0.613156
v -0.121210 0.128270 -0.136535
v -0.128215 0.136570 0.136056
v -0.121115 -0.126305 0.101018
v 0.557858 0.704851 -1.044687
v 0.557728 -0.128527 1.264128
v 0.559895 -0.980147 -0.820020
v 0.559278 -1.262818 -0.015227
v 0.560898 1.260093 0.131230
v 0.559921 -0.117293 -1.271056
v 0.558975 1.102170 -0.583527
v 0.559941 -0.994190 0.794445
v 0.560172 0.800577 0.978515
v 0.356221 0.016388 0.630441
v 0.366699 -0.550972 0.199703
v 0.393015 0.648334 -0.233303
v 0.352811 -0.538915 -0.194912
v 0.505565 -0.355014 -0.949282
vn -0.9994 -0.0144 0.0311
vn -0.9742 0.2228 -0.0353
vn -0.9241 -0.3646 -0.1148
vn -0.9635 0.2467 -0.1036
vn -0.9449 0.3085 0.1095
vn -0.9920 0.0539 -0.1142
vn 0.9445 -0.2417 -0.2227
vn -0.9790 0.2032 -0.0146
vn -0.9925 -0.0817 0.0914
vn -0.9917 -0.0589 -0.1146
vn -0.9865 0.1041 -0.1262
vn -0.9880 0.1453 0.0528
vn -0.9834 0.1168 0.1388
vn -0.9945 0.0116 0.1038
vn -0.9965 -0.0795 -0.0250
vn 0.0488 -0.0092 -0.9988
vn 0.9182 -0.0080 0.3961
vn 0.9538 -0.3004 -0.0090
vn 0.9370 0.3367 -0.0936
vn 0.9264 -0.3480 -0.1441
vn 0.9150 -0.3802 0.1349
vn -0.9292 0.2719 -0.2503
vn 0.8958 0.2716 0.3520
vn 0.0492 0.9752 -0.2156
vn 0.0727 -0.4620 -0.8839
vn 0.0500 -0.9480 0.3145
vn 0.9798 0.0972 -0.1746
vn 0.0712 -0.4755 0.8768
vn 0.0848 0.8758 0.4751
vn 0.9769 -0.2007 0.0734
vn 0.9871 -0.1164 0.1095
vn 0.9868 -0.0066 0.1618
vn 0.9895 0.1366 -0.0461
vn 0.8230 0.5680 0.0039
vn 0.0628 0.2651 -0.9622
vn 0.2070 0.6510 0.7303
vn 0.1849 0.2479 -0.9510
vn -0.0440 -0.9072 -0.4184
vn 0.2623 -0.9557 -0.1333
vn -0.0254 -0.1585 -0.9870
vn 0.0458 -0.6616 0.7485
vn -0.1942 0.9606 0.1989
vn 0.2059 -0.9744 0.0907
vn 0.2419 -0.9661 -0.0906
vn -0.8619 -0.0146 -0.5068
vn -0.9990 -0.0436 -0.0089
vn -0.9922 -0.0255 -0.1220
vn -0.9963 0.0859 0.0040
vn -0.9943 -0.0504 -0.0938
vn -0.8544 0.0100 0.5195
vn -0.9139 -0.4043 0.0353
vn -0.9872 -0.0661 0.1450
vn -0.8167 0.5770 0.0010
vn -0.9752 -0.0458 -0.2165
vn -0.9882 -0.1532 0.0089
vn -0.9963 -0.0858 0.0025
vn -0.9939 0.1081 0.0233
vn -0.9893 0.0466 0.1384
vn -0.9883 -0.1194 0.0947
vn -0.9976 -0.0561 -0.0411
vn -0.9817 0.0620 -0.1800
vn -0.9925 0.0917 -0.0805
vn -0.9909 0.1191 -0.0630
vn -0.9928 0.1093 -0.0492
vn -0.9894 -0.0128 0.1446
vn -0.9856 -0.0773 0.1507
vn -0.9949 0.0782 0.0638
vn -0.9939 -0.0151 -0.1090
vn 0.6999 -0.7142 -0.0018
vn -0.9895 -0.0907 0.1123
vn 0.8879 0.0170 -0.4597
vn 0.6329 0.1191 -0.7650
vn 0.6691 -0.1044 0.7358
vn 0.6426 0.7653 -0.0379
vn 0.9180 0.3949 0.0368
vn 0.0150 0.7751 -0.6317
vn 0.9990 0.0308 0.0326
vn -0.0158 0.0987 -0.9950
vn 0.9941 -0.1068 0.0209
vn 0.0261 -0.9496 -0.3123
vn -0.0544 -0.7536 -0.6550
vn 0.9804 0.1856 0.0659
vn 0.9690 -0.0633 0.2388
vn -0.0135 0.4694 -0.8829
vn 0.9958 0.0919 -0.0038
vn -0.0043 0.7734 0.6339
vn -0.0191 -0.6313 0.7753
vn 0.1486 0.9014 0.4068
vn 0.0782 0.2927 0.9530
vn 0.9610 -0.0836 -0.2636
vn 0.9919 -0.0958 -0.0833
vn 0.9809 -0.1716 -0.0922
vn 0.9888 -0.1360 -0.0616
vn -0.0153 0.1014 0.9947
vn -0.0087 0.4724 0.8813
vn -0.0008 0.9911 -0.1328
vn -0.0153 -0.3250 -0.9456
vn 0.9856 0.0782 0.1497
vn -0.0276 -0.9939 0.1068
vn 0.9901 -0.1074 0.0902
vn -0.0059 0.9571 0.2899
vn 0.9969 0.0645 -0.0445
vn -0.0277 -0.8792 0.4756
vn -0.0205 -0.2886 0.9572
vn 0.9945 0.0139 -0.1040
vn 0.8275 -0.0522 0.5590
vn 0.2967 -0.6515 -0.6983
vn 0.1139 0.9244 -0.3640
vn 0.0657 0.9972 -0.0354
vn 0.3439 0.5687 0.7472
vn 0.1478 -0.9589 0.2421
vn -0.0128 -0.1611 0.9869
vn 0.0136 -0.9000 0.4357
vn 0.0791 -0.3429 0.9360
vn 0.0123 -0.6135 -0.7896
vn -0.0104 0.6194 -0.7850
vn -0.0093 -0.8690 -0.4948
vn 0.1143 0.9697 -0.2158
vn 0.0729 -0.3460 -0.9354
vn 0.0179 -0.6639 0.7476
vn -0.0366 -0.5458 0.8371
vn 0.0268 0.5750 0.8177
vn -0.0262 0.5983 0.8008
vn -0.0639 0.8573 -0.5108
vn -0.0037 -0.6249 -0.7807
vn -0.0576 0.8660 0.4967
vn 0.0186 -0.0495 0.9986
vn -0.0124 0.6147 -0.7886
vt 0.574493 0.244623
vt 0.641917 0.226031
vt 0.616286 0.271462
vt 0.497447 0.170112
vt 0.499576 0.253802
vt 0.442950 0.215644
vt 0.715177 0.093172
vt 0.749845 0.144687
vt 0.702044 0.141063
vt 0.455287 0.124245
vt 0.472776 0.303561
vt 0.601671 0.195253
vt 0.589631 0.206124
vt 0.566416 0.162422
vt 0.664812 0.050271
vt 0.435494 0.195961
vt 0.407128 0.235872
vt 0.406954 0.161637
vt 0.739976 0.277652
vt 0.741675 0.343897
vt 0.676761 0.341719
vt 0.640813 0.004376
vt 0.712657 0.034994
vt 0.523140 0.055922
vt 0.436888 0.089872
vt 0.491550 0.034798
vt 0.461646 0.296382
vt 0.539898 0.354731
vt 0.437124 0.312216
vt 0.601575 0.402345
vt 0.767300 0.090940
vt 0.792782 0.147903
vt 0.338886 0.561274
vt 0.375859 0.567804
vt 0.343884 0.672765
vt 0.859841 0.387891
vt 0.806593 0.288050
vt 0.880105 0.317750
vt 0.914923 0.214752
vt 0.853622 0.273187
vt 0.845841 0.204404
vt 0.066619 0.285078
vt 0.042706 0.227738
vt 0.111236 0.231578
vt 0.924124 0.155594
vt 0.797431 0.283689
vt 0.122133 0.342789
vt 0.084329 0.095405
vt 0.202072 0.004917
vt 0.200842 0.034093
vt 0.001344 0.516985
vt 0.165285 0.536417
vt 0.001755 0.631855
vt 0.172454 0.456838
vt 0.337804 0.509780
vt 0.172472 0.608205
vt 0.736106 0.608774
vt 0.570306 0.532560
vt 0.735893 0.474485
vt 0.162985 0.394345
vt 0.036819 0.309588
vt 0.403071 0.599260
vt 0.568253 0.673127
vt 0.403120 0.690299
vt 0.166313 0.701796
vt 0.004218 0.716101
vt 0.357620 0.135324
vt 0.392835 0.240408
vt 0.363945 0.238935
vt 0.285345 0.060831
vt 0.385103 0.124809
vt 0.003611 0.180714
vt 0.657638 0.906116
vt 0.674690 0.887442
vt 0.676440 0.927766
vt 0.336587 0.674793
vt 0.172349 0.689328
vt 0.949418 0.520376
vt 0.901047 0.545559
vt 0.949368 0.411584
vt 0.380652 0.613872
vt 0.797919 0.057911
vt 0.807879 0.010606
vt 0.858579 0.129233
vt 0.954308 0.780808
vt 0.907748 0.804507
vt 0.987027 0.672745
vt 0.002968 0.775053
vt 0.012011 0.727308
vt 0.068462 0.856781
vt 0.724351 0.716430
vt 0.569619 0.718191
vt 0.569614 0.674729
vt 0.901138 0.419666
vt 0.887697 0.016690
vt 0.906905 0.679798
vt 0.607295 0.074586
vt 0.558302 0.079386
vt 0.643145 0.045751
vt 0.602281 0.127873
vt 0.635312 0.167444
vt 0.711605 0.239088
vt 0.631494 0.322696
vt 0.582501 0.327495
vt 0.550598 0.356044
vt 0.790283 0.246332
vt 0.507965 0.376438
vt 0.563034 0.004009
vt 0.461652 0.104951
vt 0.677583 0.387018
vt 0.340487 0.912971
vt 0.340487 0.851223
vt 0.399059 0.844410
vt 0.392068 0.906972
vt 0.258572 0.359750
vt 0.189827 0.326136
vt 0.525975 0.911927
vt 0.514356 0.851573
vt 0.568644 0.849525
vt 0.761822 0.940041
vt 0.737647 0.879463
vt 0.797323 0.879463
vt 0.569470 0.935109
vt 0.569470 0.875461
vt 0.628112 0.889098
vt 0.628112 0.941626
vt 0.120348 0.156296
vt 0.003568 0.433124
vt 0.166295 0.444865
vt 0.637603 0.921843
vt 0.628112 0.875461
vt 0.337242 0.607710
vt 0.571306 0.403530
vt 0.736574 0.403231
vt 0.570971 0.456319
vt 0.337644 0.420298
vt 0.063056 0.061661
vt 0.327660 0.047936
vt 0.168757 0.403572
vt 0.402987 0.451828
vt 0.566153 0.403361
vt 0.566549 0.449642
vt 0.571520 0.660464
vt 0.570693 0.609427
vt 0.438071 0.697185
vt 0.438018 0.808740
vt 0.402718 0.749004
vt 0.403273 0.704359
vt 0.567210 0.523600
vt 0.310088 0.363869
vt 0.320340 0.323089
vt 0.567792 0.602541
vt 0.165519 0.631803
vt 0.993652 0.414741
vt 0.994447 0.460636
vt 0.491556 0.833908
vt 0.909018 0.863936
vt 0.912267 0.817930
vt 0.974391 0.933653
vt 0.997702 0.719229
vt 0.469798 0.878506
vt 0.512635 0.970655
vt 0.422954 0.865428
vt 0.340470 0.402743
vt 0.385626 0.416163
vt 0.384042 0.542462
vt 0.338886 0.556391
vt 0.401957 0.929650
vt 0.901293 0.779074
vt 0.743081 0.784075
vt 0.745764 0.703197
vt 0.900581 0.699329
vt 0.491769 0.707948
vt 0.525294 0.696076
vt 0.524735 0.849816
vt 0.083009 0.738110
vt 0.120369 0.726205
vt 0.118276 0.879858
vt 0.922152 0.002088
vt 0.922239 0.155418
vt 0.961521 0.305757
vt 0.926904 0.310856
vt 0.948236 0.155761
vt 0.991776 0.167578
vt 0.335889 0.826923
vt 0.333769 0.897883
vt 0.179361 0.888585
vt 0.179109 0.814478
vt 0.922249 0.152679
vt 0.922318 -0.000061
vt 0.975733 0.012048
vt 0.984310 0.127849
vt 0.340493 0.844231
vt 0.340774 0.690893
vt 0.384674 0.706115
vt 0.385392 0.830849
vt 0.740091 0.592623
vt 0.751364 0.551118
vt 0.877273 0.548230
vt 0.894203 0.591339
vt 0.978580 0.815131
vt 0.891132 0.658088
vt 0.737826 0.661310
s 0
usemtl rim.001
f 38/1/1 8/2/1 40/3/1
f 3/4/2 37/5/2 6/6/2
f 1/7/3 13/8/3 35/9/3
f 3/4/4 6/6/4 15/10/4
f 37/5/5 16/11/5 6/6/5
f 31/12/6 30/13/6 2/14/6
f 37/33/16 38/34/16 71/35/16
f 72/36/17 47/37/17 49/38/17
f 43/39/18 70/40/18 46/41/18
f 42/42/19 52/43/19 69/44/19
f 43/39/20 46/41/20 54/45/20
f 70/40/21 55/46/21 46/41/21
f 50/73/34 56/74/34 57/75/34
f 49/78/36 47/79/36 40/80/36
f 48/81/37 71/35/37 38/34/37
f 48/82/38 38/83/38 49/84/38
f 44/85/39 68/86/39 2/87/39
f 56/88/40 8/89/40 70/90/40
f 55/91/41 12/92/41 41/93/41
f 9/94/42 40/80/42 47/79/42
f 49/84/43 38/83/43 7/95/43
f 2/87/44 68/86/44 34/96/44
f 5/97/45 34/98/45 10/24/45 14/99/45
f 3/4/46 2/14/46 38/1/46 37/5/46
f 4/100/47 36/101/47 2/14/47
f 8/2/48 36/101/48 35/9/48 39/102/48
f 9/103/49 7/104/49 38/1/49 40/3/49
f 7/104/50 9/103/50 41/21/50 11/105/50
f 39/102/51 35/9/51 13/8/51 12/19/51
f 30/13/52 31/12/52 8/2/52 38/1/52
f 38/1/53 2/14/53 30/13/53
f 2/14/54 36/101/54 31/12/54
f 36/101/55 8/2/55 31/12/55
f 43/111/69 57/112/69 56/113/69 70/114/69
f 2/14/70 34/98/70 5/97/70 4/100/70
f 51/115/71 53/47/71 68/116/71
f 44/117/72 58/118/72 57/119/72
f 49/120/73 56/121/73 48/122/73
f 48/123/74 58/124/74 69/125/74 71/126/74
f 71/127/75 69/44/75 52/43/75 45/48/75
f 56/74/77 58/130/77 48/131/77
f 4/145/88 44/146/88 57/147/88 36/148/88
f 50/73/106 57/75/106 58/130/106
f 50/73/107 58/130/107 56/74/107
f 40/80/108 8/154/108 56/155/108 49/78/108
f 44/146/109 4/145/109 68/156/109
f 58/157/110 2/158/110 69/159/110
f 58/160/111 44/85/111 2/87/111
f 57/161/112 43/162/112 36/163/112
f 1/164/113 35/165/113 43/166/113 54/167/113
f 36/163/114 43/162/114 35/168/114
f 51/169/115 14/170/115 1/171/115 54/172/115
f 68/156/116 5/173/116 14/174/116 51/175/116
f 70/90/117 39/176/117 12/177/117 55/178/117
f 5/173/118 68/156/118 4/145/118
f 39/176/119 70/90/119 8/89/119
f 7/95/120 11/179/120 72/180/120 49/84/120
f 47/181/121 55/182/121 41/183/121
f 41/183/122 9/184/122 47/181/122
f 11/185/123 16/186/123 45/187/123 72/188/123
f 45/189/124 16/190/124 37/191/124 71/192/124
f 53/193/125 10/194/125 34/195/125 68/196/125
f 42/197/126 69/198/126 3/199/126 15/200/126
f 3/201/127 69/159/127 2/158/127
f 42/197/128 15/200/128 10/202/128 53/203/128
usemtl caucho.001
f 1/7/7 14/15/7 13/8/7
f 6/16/8 23/17/8 22/18/8
f 12/19/9 20/20/9 41/21/9
f 14/15/10 17/22/10 26/23/10
f 10/24/11 28/25/11 33/26/11
f 16/27/12 23/17/12 6/16/12
f 11/28/13 24/29/13 16/27/13
f 41/21/14 32/30/14 11/28/14
f 13/8/15 21/31/15 18/32/15
f 42/42/22 53/47/22 52/43/22
f 45/48/23 64/49/23 72/50/23
f 65/51/24 29/52/24 63/53/24
f 61/54/25 25/55/25 64/56/25
f 66/57/26 22/58/26 62/59/26
f 53/47/27 60/60/27 66/61/27
f 60/62/28 33/63/28 66/64/28
f 63/53/29 21/65/29 67/66/29
f 55/67/30 63/68/30 46/69/30
f 47/70/31 65/71/31 55/67/31
f 72/50/32 64/49/32 47/70/32
f 52/43/33 66/61/33 62/72/33
f 64/56/35 19/76/35 59/77/35
f 18/32/56 29/106/56 12/19/56 13/8/56
f 16/27/57 24/29/57 23/17/57
f 11/28/58 32/30/58 25/107/58
f 12/19/59 29/106/59 20/20/59
f 26/23/60 21/31/60 13/8/60 14/15/60
f 33/26/61 27/108/61 10/24/61
f 10/24/62 15/109/62 28/25/62
f 22/18/63 28/25/63 15/109/63
f 15/109/64 6/16/64 22/18/64
f 41/21/65 19/110/65 32/30/65
f 41/21/66 20/20/66 19/110/66
f 11/28/67 25/107/67 24/29/67
f 27/108/68 17/22/68 14/15/68 10/24/68
f 29/52/76 65/51/76 59/128/76 20/129/76
f 32/132/78 19/76/78 64/56/78
f 55/67/79 65/71/79 63/68/79
f 24/133/80 61/134/80 62/59/80 23/135/80
f 61/54/81 24/136/81 25/55/81
f 45/48/82 62/72/82 61/137/82
f 47/70/83 64/49/83 59/138/83
f 59/128/84 19/139/84 20/129/84
f 45/48/85 52/43/85 62/72/85
f 67/140/86 21/141/86 26/142/86
f 66/57/87 33/143/87 28/144/87
f 60/62/89 67/140/89 17/149/89
f 67/150/90 60/60/90 51/115/90
f 51/115/91 54/151/91 67/150/91
f 63/68/92 67/150/92 54/151/92
f 54/151/93 46/69/93 63/68/93
f 60/62/94 17/149/94 27/152/94
f 67/140/95 26/142/95 17/149/95
f 63/53/96 29/52/96 18/153/96
f 64/56/97 25/55/97 32/132/97
f 45/48/98 61/137/98 64/49/98
f 62/59/99 22/58/99 23/135/99
f 47/70/100 59/138/100 65/71/100
f 63/53/101 18/153/101 21/65/101
f 52/43/102 53/47/102 66/61/102
f 66/57/103 28/144/103 22/58/103
f 60/62/104 27/152/104 33/63/104
f 53/47/105 51/115/105 60/60/105
