# Blender 4.3.2
# www.blender.org
mtllib f1-70s_front_wheel.mtl
o Circle.005
v -0.195842 -0.234655 -0.136498
v 0.684171 -1.003939 -0.362363
v -0.088757 -0.218986 -0.352074
v 0.747184 -0.865139 -0.735476
v 0.737930 -0.445899 -1.016283
v 0.695781 1.021633 -0.362309
v 0.510135 0.363416 -0.827449
v 0.748939 0.865975 -0.755880
v 0.509250 -0.353476 0.823437
v 0.737392 -1.017270 0.421689
v -0.205702 -0.192129 0.190260
v 0.746898 -0.757582 0.820317
v -0.206433 0.194241 0.193171
v 0.741438 1.031944 0.442892
v 0.520131 0.366357 0.824101
v -0.204402 0.202130 -0.191264
v -0.138085 -0.163301 0.015004
v -0.140020 0.011679 0.153407
v -0.138245 0.170285 0.010210
v -0.151154 0.003066 -0.181156
v -0.093010 0.004862 -0.001621
v 0.759716 0.125810 -1.149606
v 0.759736 -0.126972 1.143106
v 0.745970 0.692064 0.918451
v 0.770103 -1.562385 -0.640899
v 0.769722 -0.753783 -1.511296
v 0.770062 1.510357 -0.795658
v 0.769844 -0.420968 1.617447
v 0.769542 -1.384243 0.957882
v 0.769643 1.608775 0.529467
v 0.769846 0.507950 -1.627647
v -0.716760 -0.261374 1.663374
v 0.770009 -1.657202 0.162048
v -0.716445 -1.099896 1.257225
v 0.769874 0.705367 1.544573
v -0.476814 0.363933 -0.819622
v -0.491776 0.832129 -0.362787
v -0.417405 0.212446 -0.188028
v -0.492338 -0.823075 -0.362691
v -0.472978 -0.353611 -0.819565
v -0.692630 -0.833429 -0.774518
v -0.493224 0.365071 0.821450
v -0.471670 0.825198 0.357074
v -0.411822 0.156680 0.225621
v -0.698364 0.912129 0.717710
v -0.471616 -0.815283 0.357047
v -0.475143 -0.353548 0.813061
v -0.438254 -0.188763 0.161876
v -0.412590 -0.194103 -0.184054
v -0.455774 0.026240 -0.157873
v -0.458256 0.018847 0.162190
v -0.463600 -0.145278 -0.079242
v -0.467672 0.169187 0.008838
v -0.508433 0.004870 -0.001570
v -0.693981 -0.077195 -1.144518
v -0.687679 1.133762 -0.033511
v -0.694482 0.810707 -0.830405
v -0.695675 0.103298 1.141436
v -0.695808 -1.142523 0.018790
v -0.690221 -0.795981 0.818438
v -0.716456 -0.427978 -1.619465
v -0.716509 1.686397 -0.170259
v -0.716794 0.919802 -1.463569
v -0.716575 -1.365892 -1.006918
v -0.716679 1.480842 0.781102
v -0.716742 0.886573 1.451847
v -0.716793 -1.695225 0.165866
vn 0.9986 0.0405 0.0348
vn 0.6753 -0.2374 0.6983
vn 0.6626 0.7483 -0.0323
vn 0.6733 0.2415 -0.6988
vn 0.6661 -0.7453 -0.0282
vn 0.6093 -0.2002 -0.7673
vn 0.6996 -0.0791 0.7101
vn 0.6719 -0.7405 -0.0116
vn 0.7022 0.0067 -0.7119
vn 0.6444 0.7605 -0.0795
vn 0.6335 -0.7646 0.1186
vn 0.5024 -0.0056 0.8646
vn 0.3810 0.9243 0.0210
vn 0.9148 0.2715 -0.2990
vn 0.9156 -0.2745 -0.2938
vn 0.9307 -0.2206 0.2919
vn 0.9329 0.2356 0.2725
vn 0.9983 -0.0430 -0.0385
vn 0.9985 -0.0389 -0.0373
vn 0.9948 0.0776 -0.0662
vn 0.9992 0.0063 -0.0383
vn 0.9981 0.0588 -0.0196
vn 0.9998 -0.0015 -0.0222
vn 0.9988 0.0270 -0.0414
vn 0.9969 -0.0201 0.0765
vn 0.9989 -0.0305 0.0365
vn 0.9997 0.0023 0.0230
vn 0.0706 -0.7308 -0.6789
vn 0.0377 0.0645 0.9972
vn 0.0580 -0.5640 0.8237
vn 0.0866 0.9935 -0.0738
vn -0.6161 -0.7281 0.3004
vn -0.9125 -0.2087 -0.3517
vn -0.6194 0.7323 0.2829
vn -0.8657 -0.4598 0.1977
vn -0.9246 0.2079 -0.3191
vn -0.6405 -0.7340 -0.2257
vn -0.8902 0.3782 -0.2539
vn -0.9115 -0.1564 0.3805
vn -0.5994 0.7360 -0.3148
vn -0.8907 0.1778 0.4184
vn -0.9599 -0.0086 0.2802
vn -0.9598 0.2705 -0.0754
vn -0.9497 0.1256 -0.2870
vn -0.9604 -0.2776 -0.0245
vn -0.9018 -0.0149 -0.4319
vn -0.2986 0.9453 0.1315
vn -0.9279 0.2478 -0.2787
vn -0.9386 0.2158 0.2692
vn -0.8609 -0.4117 0.2989
vn -0.9374 -0.1088 -0.3307
vn -0.9986 -0.0454 0.0269
vn -0.9986 -0.0457 0.0273
vn -0.9988 0.0214 -0.0449
vn -0.9977 -0.0599 -0.0319
vn -0.9995 -0.0314 -0.0070
vn -0.9994 -0.0123 0.0331
vn -0.9995 -0.0167 -0.0256
vn -0.9989 -0.0085 -0.0463
vn -0.0483 0.9763 0.2109
vn -0.0776 0.1145 -0.9904
vn 0.0251 -0.9928 -0.1172
vn -0.0606 -0.9610 -0.2699
vn -0.0392 0.1811 0.9827
vn -0.0713 -0.8756 0.4777
vn -0.0588 -0.5459 -0.8358
vn -0.1119 0.8548 -0.5067
vn -0.0190 -0.4358 0.8998
vn -0.1509 -0.9777 -0.1460
vn 0.0396 -0.2456 -0.9686
vn 0.1846 -0.1737 0.9673
vn -0.0005 0.9649 -0.2626
vn -0.0079 0.2617 0.9651
vn 0.2501 0.2351 -0.9393
vn -0.0248 -0.9550 0.2954
vn 0.6440 0.1504 0.7501
vn 0.5765 -0.3772 0.7248
vn 0.5962 0.3562 -0.7195
vn 0.6682 -0.1471 -0.7293
vn 0.8948 -0.0859 0.4382
vn 0.9657 0.2591 0.0159
vn 0.9411 -0.2244 -0.2531
vn 0.9185 -0.2390 0.3150
vn 0.9142 0.2659 0.3059
vn 0.9337 0.2361 -0.2693
vn 0.9895 0.1437 0.0171
vn 0.9807 0.0576 0.1870
vn 0.9993 0.0128 -0.0342
vn 0.9997 0.0020 0.0228
vn 0.0488 0.7467 0.6634
vn 0.9900 -0.1409 0.0108
vn 0.9894 -0.0236 0.1430
vn 0.9976 -0.0404 -0.0561
vn 0.0523 -0.0917 -0.9944
vn -0.9991 0.0405 0.0114
vn -0.5907 -0.2694 0.7606
vn -0.9278 0.3335 0.1673
vn -0.6117 0.3468 0.7110
vn -0.6226 -0.3648 -0.6923
vn -0.5795 0.2724 -0.7681
vn -0.9274 -0.3468 -0.1403
vn 0.8516 -0.2501 -0.4608
vn -0.9638 0.1646 -0.2099
vn -0.9457 0.2011 0.2553
vn -0.7252 -0.0709 0.6849
vn -0.7367 -0.6747 -0.0442
vn -0.9916 -0.0957 0.0870
vn -0.9993 0.0067 -0.0357
vn -0.9992 -0.0293 -0.0260
vn -0.9986 -0.0063 0.0519
vn -0.9989 0.0427 -0.0181
vn -0.9990 0.0216 0.0386
vn 0.0110 0.9695 0.2449
vn 0.0916 0.6360 -0.7663
vn 0.0250 -0.9456 0.3243
vn -0.0260 -0.0633 0.9977
vn 0.0857 -0.9787 0.1864
vn 0.0257 -0.9587 -0.2832
vn -0.0279 -0.2744 -0.9612
vn -0.0238 -0.2607 0.9651
vn 0.0814 -0.0127 -0.9966
vn 0.0053 -0.9686 -0.2487
vn -0.2216 0.9106 -0.3488
vn 0.0051 -0.0025 -1.0000
vn 0.0663 0.9537 -0.2933
vn 0.0779 0.9860 0.1477
vn -0.1112 0.3010 0.9471
vn 0.0518 0.3355 -0.9406
vn 0.0713 0.3251 0.9430
vn 0.0493 -0.9698 0.2387
vt 0.000000 0.000000
s 0
usemtl rim.001
f 22/1/2 7/1/2 16/1/2
f 10/1/3 2/1/3 11/1/3
f 23/1/4 9/1/4 11/1/4
f 6/1/5 14/1/5 13/1/5
f 23/1/6 15/1/6 24/1/6
f 22/1/7 16/1/7 3/1/7
f 6/1/8 13/1/8 16/1/8
f 23/1/9 11/1/9 13/1/9
f 2/1/10 1/1/10 11/1/10
f 17/1/11 11/1/11 1/1/11
f 11/1/12 18/1/12 13/1/12
f 19/1/13 16/1/13 13/1/13
f 19/1/14 21/1/14 20/1/14
f 21/1/15 17/1/15 20/1/15
f 21/1/16 18/1/16 17/1/16
f 21/1/17 19/1/17 18/1/17
f 37/1/32 56/1/32 57/1/32
f 38/1/33 56/1/33 37/1/33
f 39/1/34 41/1/34 59/1/34
f 49/1/35 55/1/35 40/1/35
f 49/1/36 39/1/36 59/1/36
f 43/1/37 45/1/37 56/1/37
f 44/1/38 58/1/38 42/1/38
f 44/1/39 43/1/39 56/1/39
f 46/1/40 59/1/40 60/1/40
f 48/1/41 59/1/41 46/1/41
f 55/1/42 49/1/42 38/1/42
f 59/1/43 48/1/43 49/1/43
f 58/1/44 44/1/44 48/1/44
f 56/1/45 38/1/45 44/1/45
f 52/1/46 38/1/46 49/1/46
f 38/1/47 53/1/47 44/1/47
f 50/1/48 54/1/48 53/1/48
f 54/1/49 51/1/49 53/1/49
f 54/1/50 52/1/50 51/1/50
f 52/1/51 54/1/51 50/1/51
f 1/1/69 49/1/69 3/1/69
f 16/1/70 37/1/70 6/1/70
f 13/1/71 43/1/71 44/1/71
f 13/1/72 42/1/72 15/1/72
f 11/1/73 46/1/73 10/1/73
f 1/1/74 39/1/74 49/1/74
f 3/1/75 40/1/75 5/1/75
f 22/1/76 3/1/76 5/1/76
f 7/1/77 22/1/77 8/1/77
f 9/1/78 23/1/78 12/1/78
f 23/1/79 13/1/79 15/1/79
f 3/1/80 20/1/80 1/1/80
f 3/1/81 16/1/81 20/1/81
f 20/1/82 17/1/82 1/1/82
f 11/1/83 17/1/83 18/1/83
f 18/1/84 19/1/84 13/1/84
f 19/1/85 20/1/85 16/1/85
f 36/1/96 57/1/96 55/1/96
f 55/1/97 38/1/97 36/1/97
f 40/1/98 55/1/98 41/1/98
f 42/1/99 58/1/99 45/1/99
f 47/1/100 60/1/100 58/1/100
f 58/1/101 48/1/101 47/1/101
f 52/1/102 50/1/102 38/1/102
f 50/1/103 53/1/103 38/1/103
f 53/1/104 51/1/104 44/1/104
f 51/1/105 48/1/105 44/1/105
f 48/1/106 52/1/106 49/1/106
f 51/1/107 52/1/107 48/1/107
f 36/1/113 38/1/113 16/1/113 7/1/113
f 36/1/116 7/1/116 8/1/116 57/1/116
f 57/1/117 8/1/117 6/1/117 37/1/117
f 43/1/118 14/1/118 24/1/118 45/1/118
f 16/1/119 38/1/119 37/1/119
f 13/1/120 14/1/120 43/1/120
f 45/1/121 24/1/121 15/1/121 42/1/121
f 47/1/122 48/1/122 11/1/122 9/1/122
f 13/1/123 44/1/123 42/1/123
f 9/1/124 12/1/124 60/1/124 47/1/124
f 46/1/125 60/1/125 12/1/125 10/1/125
f 2/1/126 4/1/126 41/1/126 39/1/126
f 11/1/127 48/1/127 46/1/127
f 1/1/128 2/1/128 39/1/128
f 40/1/129 41/1/129 4/1/129 5/1/129
f 3/1/130 49/1/130 40/1/130
usemtl cauchos.001
f 26/1/1 5/1/1 4/1/1 25/1/1
f 14/1/18 30/1/18 35/1/18
f 14/1/19 35/1/19 24/1/19
f 10/1/20 33/1/20 2/1/20
f 24/1/21 35/1/21 23/1/21
f 10/1/22 29/1/22 33/1/22
f 23/1/23 35/1/23 28/1/23
f 12/1/24 29/1/24 10/1/24
f 5/1/25 26/1/25 22/1/25
f 8/1/26 31/1/26 27/1/26
f 22/1/27 31/1/27 8/1/27
f 25/1/28 64/1/28 26/1/28
f 35/1/29 32/1/29 28/1/29
f 28/1/30 34/1/30 29/1/30
f 27/1/31 62/1/31 30/1/31
f 56/1/52 62/1/52 57/1/52
f 57/1/53 62/1/53 63/1/53
f 60/1/54 34/1/54 32/1/54
f 45/1/55 62/1/55 56/1/55
f 45/1/56 65/1/56 62/1/56
f 57/1/57 63/1/57 55/1/57
f 58/1/58 66/1/58 45/1/58
f 58/1/59 32/1/59 66/1/59
f 62/1/60 65/1/60 30/1/60
f 63/1/61 31/1/61 61/1/61
f 67/1/62 25/1/62 33/1/62
f 67/1/63 64/1/63 25/1/63
f 66/1/64 32/1/64 35/1/64
f 67/1/65 29/1/65 34/1/65
f 64/1/66 61/1/66 26/1/66
f 62/1/67 27/1/67 63/1/67
f 32/1/68 34/1/68 28/1/68
f 2/1/86 33/1/86 25/1/86
f 4/1/87 2/1/87 25/1/87
f 29/1/88 12/1/88 23/1/88 28/1/88
f 22/1/89 26/1/89 31/1/89
f 66/1/90 35/1/90 30/1/90 65/1/90
f 6/1/91 27/1/91 30/1/91
f 6/1/92 8/1/92 27/1/92
f 14/1/93 6/1/93 30/1/93
f 26/1/94 61/1/94 31/1/94
f 67/1/95 59/1/95 41/1/95 64/1/95
f 58/1/108 60/1/108 32/1/108
f 45/1/109 66/1/109 65/1/109
f 55/1/110 63/1/110 61/1/110
f 34/1/111 60/1/111 59/1/111 67/1/111
f 64/1/112 41/1/112 55/1/112 61/1/112
f 63/1/114 27/1/114 31/1/114
f 67/1/115 33/1/115 29/1/115
