# Blender 4.3.2
# www.blender.org
mtllib hot_rod2_rear_wheel.mtl
o Cylinder.003
v 0.294049 -0.006730 0.007904
v 0.238454 -0.005000 0.096993
v 0.286334 0.017145 -0.018826
v -0.261609 0.006632 -0.128656
v -0.259694 -0.106143 -0.072732
v -0.261489 -0.031881 0.125187
v -0.261609 -0.006632 0.128656
v -0.261489 0.018840 0.127801
v -0.260476 0.086045 0.094619
v -0.259694 0.113059 -0.061433
v -0.504528 0.321006 -0.909561
v 0.546251 0.048859 -0.947843
v -0.504528 -0.225783 -0.937747
v -0.508766 -0.585395 -0.762593
v 0.547154 -0.625242 -0.718034
v -0.505341 -0.911818 -0.308532
v 0.536341 -0.922632 -0.243177
v -0.514344 -0.956436 0.040556
v 0.547469 -0.922774 0.234589
v 0.535158 -0.817790 0.495945
v -0.504788 -0.785942 0.556117
v 0.544561 -0.642153 0.704922
v -0.510447 -0.576278 0.763241
v -0.523466 -0.397206 0.865093
v 0.510007 -0.330355 0.911492
v -0.505297 -0.220818 0.932180
v 0.546209 -0.048877 0.948207
v -0.505297 0.123800 0.949944
v -0.523466 0.306151 0.901349
v -0.510447 0.494747 0.818449
v -0.504789 0.724596 0.633981
v 0.535158 0.762462 0.577402
v -0.514344 0.947197 0.138682
v 0.546978 0.952154 0.028875
v 0.536341 0.942745 -0.147022
v -0.505342 0.938709 -0.213143
v 0.545825 0.861639 -0.406764
v -0.508766 0.660703 -0.698360
v 0.541009 0.489562 -0.820241
v 0.549608 0.031333 -0.607855
v 0.549608 -0.608036 -0.027817
v 0.549491 -0.511842 0.338157
v 0.549608 -0.031333 0.607855
v 0.549608 0.607674 0.034849
v 0.549491 0.511842 -0.338157
v 0.544054 0.151704 -0.588567
v 0.546717 -0.147748 -0.940107
v 0.541009 -0.402629 -0.866231
v 0.545825 -0.815248 -0.493202
v 0.546978 -0.950076 -0.069179
v 0.550408 -0.324398 0.873522
v 0.550408 0.232863 0.902247
v 0.544561 0.566269 0.767213
v 0.547469 0.893763 0.328227
v 0.547154 0.695757 -0.649940
v 0.546717 0.243627 -0.919933
v -0.525768 0.031800 -0.616903
v -0.528071 -0.254146 -0.572246
v -0.513752 -0.089267 -0.602849
v -0.505484 -0.323377 -0.522652
v -0.525518 -0.508999 -0.354211
v -0.523321 -0.607025 -0.132560
v -0.509464 -0.601392 0.100241
v -0.524658 -0.542476 0.298271
v -0.523049 -0.379882 0.489150
v -0.521043 -0.129867 0.602509
v -0.527997 -0.218536 0.586192
v -0.524425 0.110817 0.609157
v -0.523049 0.327574 0.525617
v -0.524658 0.508932 0.352468
v -0.509464 0.587898 0.161546
v -0.523322 0.617437 -0.069442
v -0.525518 0.542721 -0.299998
v -0.505484 0.375403 -0.486632
v -0.528071 0.311638 -0.543082
v -0.513752 0.150780 -0.590475
v -0.521606 0.048880 -0.948253
v -0.532468 -0.322468 -0.829276
v -0.526049 -0.798262 -0.514380
v -0.525556 -0.893843 0.317501
v -0.521666 -0.048884 0.948331
v -0.525556 0.856460 0.407723
v -0.526050 0.846920 -0.429576
v -0.532468 0.406025 -0.791724
v 0.544054 -0.090382 -0.601046
v 0.549693 -0.280865 -0.547524
v 0.549491 -0.474360 -0.388992
v 0.549444 -0.586311 -0.185198
v 0.549444 -0.602245 0.123932
v 0.549770 -0.363484 0.491279
v 0.549444 -0.185198 0.586311
v 0.549444 0.123932 0.602245
v 0.549770 0.311044 0.526049
v 0.549491 0.474360 0.388992
v 0.549444 0.586311 0.185198
v 0.549444 0.602245 -0.123932
v 0.549693 0.335674 -0.515744
v 0.157657 -0.019454 -0.133366
v 0.238454 0.005000 -0.096993
v 0.156667 -0.092117 -0.101565
v 0.158424 -0.134045 -0.007064
v 0.158406 -0.084229 0.107211
v 0.158406 0.072759 0.115304
v 0.158424 0.134061 0.006756
v 0.156667 0.102072 -0.091555
v 0.157657 0.033064 -0.130659
vn 0.0023 0.6719 0.7407
vn 0.0033 0.9997 -0.0244
vn 0.0024 0.0276 -0.9996
vn 0.0024 -0.6905 -0.7233
vn 0.9999 0.0102 -0.0015
vn 1.0000 -0.0074 -0.0021
vn 1.0000 0.0052 0.0026
vn 1.0000 0.0055 -0.0043
vn 1.0000 -0.0031 -0.0086
vn 1.0000 0.0076 -0.0013
vn 0.9999 -0.0093 -0.0049
vn 0.9999 -0.0085 -0.0054
vn 1.0000 0.0029 -0.0020
vn -0.9999 -0.0054 0.0156
vn -1.0000 0.0024 -0.0035
vn -0.9999 0.0038 0.0161
vn -1.0000 0.0029 0.0060
vn -1.0000 0.0061 -0.0008
vn -1.0000 0.0052 -0.0009
vn -1.0000 -0.0029 0.0086
vn -1.0000 -0.0035 0.0056
vn 0.0185 -0.2787 -0.9602
vn 0.0142 -0.5538 -0.8325
vn 0.0152 -0.9189 -0.3941
vn -0.0005 -0.9878 -0.1558
vn 0.0152 -0.9959 0.0895
vn 0.0138 -0.7658 0.6430
vn 0.6668 -0.3588 0.6532
vn 0.0138 0.6956 0.7183
vn 0.0152 0.9814 0.1914
vn -0.0005 0.9986 -0.0534
vn 0.0152 0.9546 -0.2975
vn 0.0142 0.6365 -0.7712
vn 0.0185 0.3760 -0.9264
vn -0.0083 0.1145 0.9934
vn -0.9466 0.0609 0.3165
vn 0.9895 -0.0603 -0.1316
vn 0.9707 -0.2037 0.1276
vn 0.9337 0.3500 -0.0752
vn 0.8931 0.4452 -0.0639
vn 0.3165 -0.6892 0.6518
vn -0.7763 -0.2407 0.5826
vn 0.3464 -0.2366 0.9078
vn -0.9489 -0.0708 -0.3075
vn -0.9784 -0.1513 0.1410
vn -0.8152 0.0719 0.5747
vn -0.9650 0.1782 0.1924
vn -0.9927 0.1203 -0.0008
vn -0.9565 0.2900 -0.0315
vn -0.9739 0.1523 -0.1681
vn 0.7791 0.5783 0.2421
vn 0.7763 0.5779 -0.2518
vn 0.7777 0.5791 -0.2446
vn 0.7763 -0.5489 -0.3099
vn 0.7791 -0.6001 0.1813
vn 0.7696 -0.5883 0.2484
vn -0.8942 0.1165 0.4323
vn -0.8678 0.4625 -0.1814
vn -0.8784 -0.1670 -0.4479
vn -0.0124 -0.9993 0.0342
vn -0.0073 -0.7099 0.7042
vn -0.0016 0.0559 0.9984
vn 0.0017 0.9993 -0.0381
vn -0.0096 0.7182 -0.6958
vn -0.0060 -0.0361 -0.9993
vn 0.6683 -0.6753 -0.3120
vn 0.6634 -0.6153 0.4259
vn 0.6688 0.6473 0.3657
vn 0.6312 0.3892 -0.6709
vn 0.4443 0.8031 -0.3970
vn 0.0024 0.7612 -0.6485
vn 0.0033 -0.9919 -0.1270
vn 0.0023 -0.7445 0.6677
vn -0.0083 -0.2160 0.9764
vn -0.9999 0.0038 0.0131
vn 1.0000 0.0010 -0.0086
vn 0.9999 0.0065 0.0115
vn 0.8409 -0.2597 -0.4747
vn 1.0000 -0.0070 -0.0002
vn 0.9999 0.0081 0.0059
vn 0.9999 -0.0086 0.0050
vn 1.0000 0.0040 -0.0083
vn 1.0000 0.0070 0.0005
vn 0.9999 -0.0158 0.0038
vn 1.0000 -0.0050 -0.0048
vn 1.0000 -0.0054 0.0021
vn 0.9999 -0.0100 -0.0025
vn 0.9999 -0.0076 0.0107
vn 1.0000 -0.0027 -0.0023
vn 0.9999 0.0090 -0.0045
vn 0.9999 0.0153 0.0054
vn 0.9999 0.0097 -0.0039
vn -0.9998 0.0180 0.0091
vn 1.0000 -0.0001 -0.0087
vn -1.0000 0.0018 -0.0013
vn -0.9999 0.0106 0.0018
vn -1.0000 -0.0084 0.0042
vn -1.0000 -0.0020 -0.0037
vn -0.9998 -0.0195 -0.0033
vn -0.9999 -0.0108 0.0007
vn -0.9999 -0.0051 0.0126
vn -1.0000 0.0020 0.0089
vn -1.0000 -0.0051 -0.0014
vn -0.9996 -0.0292 -0.0025
vn 0.0005 0.1412 -0.9900
vn 0.0005 -0.0387 -0.9993
vn -0.0003 -0.7613 -0.6484
vn -0.0125 -0.4377 -0.8990
vn 0.0001 -0.9201 0.3918
vn -0.0043 -0.8758 -0.4827
vn -0.0072 -0.9919 -0.1270
vn -0.0093 -0.9754 0.2201
vn 0.0051 -0.5317 0.8469
vn -0.0046 -0.7028 0.7113
vn 0.0175 0.0963 0.9952
vn -0.0191 -0.3537 0.9352
vn 0.6876 -0.1802 0.7034
vn 0.0038 -0.1160 0.9932
vn 0.0221 0.3849 0.9227
vn 0.0169 0.2590 0.9657
vn 0.0001 0.8749 0.4843
vn -0.0046 0.6260 0.7798
vn -0.0003 0.8239 -0.5667
vn -0.0093 0.9476 0.3192
vn -0.0072 0.9997 -0.0243
vn -0.0043 0.9208 -0.3901
vn -0.9998 0.0197 -0.0013
vn -0.0125 0.5278 -0.8492
vn -0.9466 -0.0931 0.3085
vn 0.9337 -0.3404 -0.1108
vn 0.9707 0.1896 0.1478
vn 0.9895 0.0735 -0.1247
vn 0.3464 0.1420 0.9273
vn -0.7763 0.1796 0.6042
vn 0.3165 0.6185 0.7192
vn -0.9603 0.1215 -0.2510
vn 0.8931 -0.4363 -0.1094
vn -0.9013 -0.1811 -0.3935
vn -0.9739 -0.1342 -0.1829
vn -0.9565 -0.2852 -0.0611
vn -0.9927 -0.1196 -0.0132
vn -0.9650 -0.1970 0.1731
vn -0.8152 -0.1306 0.5642
vn -0.9784 0.1360 0.1558
vn -0.9013 0.2206 -0.3728
vn -0.9489 0.1020 -0.2986
vn 0.7725 0.2082 0.5999
vn 0.7725 -0.2687 0.5753
vn 0.7696 0.5596 0.3076
vn 0.7687 0.3019 -0.5638
vn 0.7687 -0.2424 -0.5919
vn 0.7777 -0.5509 -0.3028
vn -0.0495 -0.5358 0.8429
vn 0.0244 0.8669 -0.4979
vn 0.0751 0.9783 0.1932
vn -0.8764 0.4371 0.2020
vn 0.0844 -0.8552 -0.5114
vn -0.1405 0.5521 0.8218
vn -0.9019 0.3902 -0.1853
vn 0.0520 -0.2935 -0.9545
vn -0.0096 -0.2434 0.9699
vn -0.8770 0.2042 -0.4349
vn -0.0536 0.5802 -0.8127
vn 0.0501 -0.9066 0.4191
vn -0.8825 -0.1975 -0.4269
vn -0.0603 0.9963 -0.0620
vn -0.0603 -0.9846 -0.1641
vn -0.8823 -0.4060 -0.2381
vn -0.8971 -0.4345 -0.0797
vn 0.0501 0.8587 0.5101
vn -0.0536 -0.4936 -0.8680
vn -0.8764 -0.4556 0.1560
vn 0.0520 0.3901 -0.9193
vn -0.0096 0.1424 0.9898
vn -0.8942 -0.1603 0.4180
vn -0.0192 0.2314 -0.9727
vn -0.0192 -0.1302 -0.9913
vn 0.0551 0.0223 0.9982
vn 0.0551 -0.1249 0.9906
vn 0.0462 -0.9891 0.1401
vn 0.6606 0.7443 -0.0983
vn 0.0017 -0.9901 -0.1407
vn -0.0016 -0.1583 0.9874
vn -0.0073 0.6337 0.7735
vn -0.0124 0.9905 0.1367
vn -0.0078 0.1387 -0.9903
vn -0.0096 -0.6428 -0.7660
vn 0.4001 -0.8630 -0.3085
vn 0.7007 -0.2940 -0.6500
vn 0.6324 -0.7101 0.3096
vn 0.6813 0.6040 0.4134
vt 0.880119 0.327890
vt 0.370332 0.339536
vt 0.836961 0.370985
vt 0.897258 0.218937
vt 0.402208 0.250157
vt 0.899294 0.269678
vt 0.710655 0.103947
vt 0.249958 0.098309
vt 0.769528 0.101133
vt 0.618955 0.173968
vt 0.129477 0.160505
vt 0.660146 0.129293
vt 0.129562 0.339390
vt 0.086853 0.417018
vt 0.044659 0.359716
vt 0.482933 0.254266
vt 0.395318 0.290740
vt 0.104890 0.209770
vt 0.027414 0.179251
vt 0.178530 0.382098
vt 0.321386 0.382133
vt 0.413144 0.417018
vt 0.293757 0.479733
vt 0.104620 0.290673
vt 0.017793 0.254247
vt 0.097622 0.250088
vt 0.455338 0.359716
vt 0.290135 0.104920
vt 0.320238 0.030317
vt 0.334939 0.124134
vt 0.619934 0.328017
vt 0.662343 0.445454
vt 0.681545 0.385824
vt 0.963812 0.159155
vt 0.880988 0.173833
vt 0.818640 0.385736
vt 0.837678 0.445449
vt 0.839805 0.129178
vt 0.664754 0.035057
vt 0.835241 0.035056
vt 0.948487 0.366864
vt 0.536187 0.159160
vt 0.922290 0.980937
vt 0.952819 0.506312
vt 0.968296 0.978486
vt 0.888251 0.508300
vt 0.875454 0.978827
vt 0.794412 0.506364
vt 0.826206 0.981184
vt 0.783014 0.979906
vt 0.750257 0.988602
vt 0.734832 0.518269
vt 0.704082 0.992369
vt 0.643022 0.518057
vt 0.656951 0.988683
vt 0.611584 0.991537
vt 0.402194 0.070895
vt 0.319724 0.022031
vt 0.356979 0.518057
vt 0.388416 0.991536
vt 0.343049 0.988683
vt 0.265168 0.511844
vt 0.295918 0.992369
vt 0.249743 0.979255
vt 0.205588 0.506364
vt 0.216986 0.979905
vt 0.173794 0.981184
vt 0.077710 0.980937
vt 0.111749 0.508300
vt 0.124546 0.978827
vt 0.047181 0.506312
vt 0.031704 0.978486
vt 0.779877 0.397535
vt 0.249900 0.401691
vt 0.750061 0.403471
vt 0.279696 0.398261
vt 0.360741 0.455738
vt 0.449010 0.119501
vt 0.472586 0.179252
vt 0.018143 0.298271
vt 0.663104 0.371012
vt 0.720354 0.397677
vt 0.750001 0.484435
vt 0.817842 0.475622
vt 0.881138 0.054375
vt 0.749999 0.016531
vt 0.705270 0.018862
vt 0.618859 0.054376
vt 0.566968 0.102893
vt 0.516850 0.227394
vt 0.551515 0.366870
vt 0.523735 0.316318
vt 0.598975 0.431267
vt 0.282773 0.250033
vt 0.273223 0.273084
vt 0.268207 0.224110
vt 0.395177 0.209844
vt 0.370537 0.160648
vt 0.217227 0.250033
vt 0.231793 0.224110
vt 0.226777 0.273084
vt 0.769871 0.264346
vt 0.756267 0.218693
vt 0.743732 0.218693
vt 0.600704 0.269771
vt 0.209943 0.104847
vt 0.251513 0.248434
vt 0.250000 0.230468
vt 0.246455 0.254321
vt 0.243483 0.282765
vt 0.250000 0.269532
vt 0.602765 0.219174
vt 0.206242 0.479732
vt 0.250004 0.482677
vt 0.097806 0.070893
vt 0.250005 0.016398
vt 0.174107 0.028816
vt 0.165193 0.124119
vt 0.795664 0.104237
vt 0.750000 0.218068
vt 0.727760 0.227947
vt 0.726772 0.264172
vt 0.750000 0.281932
vt 0.000512 0.505180
vt 0.000623 0.981881
vt 0.997491 0.505180
vt 0.997435 0.982366
vt 0.842546 0.512253
vt 0.689285 0.520216
vt 0.547599 0.989257
vt 0.562059 0.518542
vt 0.595559 0.520375
vt 0.500000 0.995216
vt 0.452753 0.989231
vt 0.469028 0.518333
vt 0.500000 0.517495
vt 0.530972 0.518333
vt 0.404441 0.520375
vt 0.437941 0.518542
vt 0.310715 0.520216
vt 0.157454 0.512253
vt 0.220211 0.398185
vt 0.481860 0.298271
vt 0.050992 0.119503
vt 0.139259 0.455738
vt 0.901025 0.431266
vt 0.982709 0.227403
vt 0.976265 0.316318
vt 0.933032 0.102893
vt 0.794730 0.018862
vt 0.682158 0.475622
vt 0.256517 0.282765
s 0
usemtl caucho
f 45/13/5 55/14/5 37/15/5
f 41/5/6 50/16/6 88/17/6
f 95/18/7 54/19/7 94/11/7
f 97/20/8 55/14/8 45/13/8
f 86/21/9 15/22/9 47/23/9
f 96/24/10 34/25/10 44/26/10
f 88/17/11 49/27/11 87/2/11
f 88/17/12 50/16/12 49/27/12
f 91/28/13 51/29/13 90/30/13
f 73/31/14 84/32/14 75/33/14
f 62/6/15 80/34/15 64/35/15
f 58/36/16 78/37/16 61/1/16
f 64/35/17 80/34/17 65/38/17
f 68/7/18 29/39/18 69/12/18
f 65/38/19 80/34/19 24/40/19
f 61/1/20 79/41/20 62/6/20
f 69/12/21 82/42/21 70/10/21
f 48/43/22 13/44/22 47/45/22
f 14/46/23 48/43/23 15/47/23
f 16/48/24 49/49/24 17/50/24
f 16/48/25 17/50/25 50/51/25
f 18/52/26 50/51/26 19/53/26
f 21/54/27 20/55/27 22/56/27
f 22/57/28 51/29/28 25/58/28
f 31/59/29 53/60/29 32/61/29
f 33/62/30 54/63/30 34/64/30
f 36/65/31 34/64/31 35/66/31
f 36/65/32 35/66/32 37/67/32
f 39/68/33 38/69/33 55/70/33
f 11/71/34 39/68/34 56/72/34
f 40/74/36 85/76/36 86/21/36
f 47/23/37 15/22/37 48/77/37
f 22/57/38 20/78/38 19/79/38
f 37/15/39 35/80/39 34/25/39
f 62/6/40 64/35/40 63/4/40
f 75/33/41 74/81/41 73/31/41
f 75/33/42 76/82/42 74/81/42
f 57/75/43 76/82/43 75/33/43
f 78/37/44 77/83/44 13/84/44
f 24/40/45 80/34/45 23/85/45
f 29/39/46 81/86/46 28/87/46
f 82/42/47 30/88/47 31/89/47
f 82/42/48 33/90/48 83/91/48
f 83/91/49 33/90/49 36/92/49
f 84/32/50 83/91/50 38/93/50
f 73/31/75 83/91/75 84/32/75
f 56/113/76 97/20/76 40/74/76 12/114/76
f 94/11/77 54/19/77 53/115/77
f 50/16/79 41/5/79 89/97/79 19/79/79
f 51/29/80 91/28/80 43/8/80 27/116/80
f 27/116/81 43/8/81 92/106/81 52/117/81
f 97/20/82 56/113/82 55/14/82
f 54/19/83 95/18/83 44/26/83 34/25/83
f 22/57/84 42/98/84 90/30/84 51/29/84
f 86/21/85 87/2/85 15/22/85
f 89/97/86 42/98/86 19/79/86
f 87/2/87 49/27/87 15/22/87
f 42/98/88 22/57/88 19/79/88
f 92/106/89 93/118/89 52/117/89
f 96/24/90 37/15/90 34/25/90
f 53/115/91 52/117/91 93/118/91 94/11/91
f 96/24/92 45/13/92 37/15/92
f 81/86/93 66/9/93 67/119/93 24/40/93
f 12/114/94 40/74/94 86/21/94 47/23/94
f 5/102/95 6/103/95 7/120/95 8/104/95 9/121/95 10/122/95 4/123/95
f 62/6/96 79/41/96 80/34/96
f 81/86/97 29/39/97 68/7/97 66/9/97
f 72/105/98 70/10/98 82/42/98
f 77/83/99 57/75/99 75/33/99 84/32/99
f 72/105/100 82/42/100 83/91/100
f 61/1/101 78/37/101 79/41/101
f 73/31/102 72/105/102 83/91/102
f 69/12/103 29/39/103 82/42/103
f 67/119/104 65/38/104 24/40/104
f 77/124/105 11/71/105 56/72/105 12/125/105
f 13/44/106 77/126/106 12/127/106 47/45/106
f 15/47/107 49/49/107 79/128/107 14/46/107
f 14/46/108 13/44/108 48/43/108
f 19/53/109 20/55/109 21/54/109 80/129/109
f 16/48/110 79/128/110 49/49/110
f 18/52/111 16/48/111 50/51/111
f 80/129/112 18/52/112 19/53/112
f 22/56/113 25/130/113 24/131/113 23/132/113
f 23/132/114 21/54/114 22/56/114
f 27/133/115 52/134/115 28/135/115 81/136/115
f 26/137/116 24/131/116 25/130/116
f 27/116/117 25/58/117 51/29/117
f 25/130/118 27/133/118 81/136/118 26/137/118
f 52/134/119 53/60/119 30/138/119 29/139/119
f 29/139/120 28/135/120 52/134/120
f 32/61/121 54/63/121 82/140/121 31/59/121
f 31/59/122 30/138/122 53/60/122
f 37/67/123 55/70/123 38/69/123 83/141/123
f 33/62/124 82/140/124 54/63/124
f 36/65/125 33/62/125 34/64/125
f 83/141/126 36/65/126 37/67/126
f 77/83/127 78/37/127 58/36/127 57/75/127
f 39/68/128 11/71/128 38/69/128
f 40/74/129 97/20/129 46/142/129
f 50/16/130 17/143/130 49/27/130
f 53/115/131 54/19/131 32/144/131
f 56/113/132 39/145/132 55/14/132
f 57/75/133 58/36/133 59/73/133
f 59/73/134 58/36/134 60/3/134
f 61/1/135 60/3/135 58/36/135
f 67/119/136 66/9/136 65/38/136
f 70/10/137 72/105/137 71/112/137
f 78/37/138 13/84/138 14/146/138
f 79/41/139 78/37/139 14/146/139
f 18/147/140 79/41/140 16/148/140
f 80/34/141 79/41/141 18/147/141
f 23/85/142 80/34/142 21/149/142
f 24/40/143 26/150/143 81/86/143
f 29/39/144 30/88/144 82/42/144
f 84/32/145 38/93/145 11/151/145
f 84/32/146 11/151/146 77/83/146
usemtl rin
f 61/1/1 87/2/1 60/3/1
f 63/4/2 41/5/2 62/6/2
f 68/7/3 43/8/3 66/9/3
f 70/10/4 94/11/4 69/12/4
f 59/73/35 40/74/35 57/75/35
f 101/94/51 88/17/51 100/95/51
f 102/96/52 89/97/52 101/94/52
f 102/96/53 42/98/53 89/97/53
f 104/99/54 95/18/54 103/100/54
f 105/101/55 96/24/55 104/99/55
f 105/101/56 45/13/56 96/24/56
f 5/102/57 59/73/57 60/3/57
f 5/102/58 65/38/58 6/103/58
f 8/104/59 68/7/59 69/12/59
f 44/26/60 72/105/60 96/24/60
f 45/13/61 74/81/61 97/20/61
f 40/74/62 59/73/62 85/76/62
f 41/5/63 63/4/63 89/97/63
f 42/98/64 65/38/64 90/30/64
f 43/8/65 68/7/65 92/106/65
f 1/107/66 101/94/66 100/95/66
f 2/108/67 102/96/67 1/107/67
f 1/107/68 104/99/68 103/100/68
f 3/109/69 106/110/69 105/101/69
f 3/109/70 99/111/70 106/110/70
f 65/38/71 42/98/71 64/35/71
f 72/105/72 44/26/72 71/112/72
f 74/81/73 45/13/73 73/31/73
f 57/75/74 40/74/74 76/82/74
f 1/107/78 99/111/78 3/109/78
f 85/76/147 98/152/147 100/95/147 86/21/147
f 97/20/148 105/101/148 106/110/148 46/142/148
f 100/95/149 88/17/149 87/2/149
f 102/96/150 91/28/150 90/30/150
f 103/100/151 93/118/151 92/106/151
f 103/100/152 95/18/152 94/11/152
f 70/10/153 9/121/153 103/100/153 94/11/153
f 69/12/154 93/118/154 103/100/154 9/121/154
f 66/9/155 91/28/155 102/96/155 6/103/155
f 5/102/156 61/1/156 62/6/156
f 65/38/157 5/102/157 102/96/157 90/30/157
f 64/35/158 42/98/158 102/96/158 5/102/158
f 5/102/159 63/4/159 64/35/159
f 63/4/160 5/102/160 101/94/160 89/97/160
f 62/6/161 88/17/161 101/94/161 5/102/161
f 6/103/162 65/38/162 66/9/162
f 100/95/163 87/2/163 61/1/163 5/102/163
f 60/3/164 86/21/164 100/95/164 5/102/164
f 9/121/165 8/104/165 69/12/165
f 59/73/166 5/102/166 98/152/166 85/76/166
f 106/110/167 10/122/167 76/82/167 46/142/167
f 9/121/168 70/10/168 71/112/168
f 10/122/169 9/121/169 71/112/169
f 74/81/170 10/122/170 105/101/170 97/20/170
f 73/31/171 45/13/171 105/101/171 10/122/171
f 10/122/172 72/105/172 73/31/172
f 71/112/173 95/18/173 104/99/173 10/122/173
f 72/105/174 10/122/174 104/99/174 96/24/174
f 10/122/175 74/81/175 76/82/175
f 106/110/176 99/111/176 4/123/176 10/122/176
f 99/111/177 98/152/177 5/102/177 4/123/177
f 102/96/178 2/108/178 7/120/178 6/103/178
f 2/108/179 103/100/179 8/104/179 7/120/179
f 68/7/180 8/104/180 103/100/180 92/106/180
f 104/99/181 1/107/181 3/109/181 105/101/181
f 95/18/182 71/112/182 44/26/182
f 46/142/183 76/82/183 40/74/183
f 86/21/184 60/3/184 87/2/184
f 88/17/185 62/6/185 41/5/185
f 91/28/186 66/9/186 43/8/186
f 93/118/187 69/12/187 94/11/187
f 1/107/188 98/152/188 99/111/188
f 1/107/189 100/95/189 98/152/189
f 1/107/190 102/96/190 101/94/190
f 1/107/191 103/100/191 2/108/191
