# Blender 4.3.2
# www.blender.org
mtllib hot_rod2_front_wheel.mtl
o Cylinder.002
v 0.217675 -0.343773 -0.715785
v 0.217675 -0.415548 0.676645
v -0.196770 0.343773 0.715785
v -0.196770 0.415548 -0.676645
v -0.214083 0.147828 -0.773504
v 0.234349 -0.067742 -0.784883
v -0.211251 -0.189358 -0.763776
v 0.234560 -0.564818 -0.549087
v -0.210704 -0.460215 -0.639469
v 0.234349 -0.730000 -0.296192
v -0.210807 -0.713357 -0.348778
v 0.231604 -0.782976 -0.040360
v 0.234349 -0.756586 0.219563
v -0.210807 -0.745437 0.273581
v 0.234560 -0.618282 0.488102
v -0.210704 -0.523527 0.588760
v 0.234349 -0.148085 0.773758
v -0.211251 -0.266886 0.740258
v 0.231609 0.198680 0.762394
v -0.214083 0.067512 0.784604
v 0.232156 0.467228 0.633173
v -0.211909 0.554355 0.561722
v 0.230944 0.713695 0.348834
v -0.213946 0.730237 0.294472
v -0.210700 0.782976 0.040360
v 0.233455 0.782182 0.040319
v 0.230944 0.745779 -0.273603
v -0.213946 0.756645 -0.217828
v 0.232156 0.529855 -0.581776
v -0.211909 0.609174 -0.501746
v 0.231609 0.276017 -0.737925
v 0.059939 0.000000 0.000000
v -0.116971 0.005250 -0.102027
v -0.116748 -0.082182 -0.060915
v -0.116748 -0.088009 0.052142
v -0.116971 -0.005268 0.102026
v -0.116791 0.084510 0.060340
v -0.116791 0.090266 -0.051331
v 0.226645 -0.094928 -0.562701
v 0.228358 -0.302843 -0.480094
v 0.230868 0.296521 0.492928
v 0.230868 0.345632 -0.459826
v -0.215202 -0.264500 -0.513426
v -0.187644 -0.080495 -0.551845
v -0.202503 -0.471962 -0.324398
v -0.215202 -0.315889 0.483508
v -0.187644 -0.136809 0.540644
v -0.204041 0.078801 0.563322
v -0.213631 0.305379 0.484884
v -0.208430 0.476668 0.319283
v -0.208430 0.506971 -0.268580
v -0.213631 0.353617 -0.450915
v -0.204041 0.136304 -0.552234
v 0.206530 -0.458972 -0.325461
v 0.231456 -0.548967 -0.162519
v 0.231417 -0.562971 -0.029019
v 0.231456 -0.562768 0.105213
v 0.206530 -0.490003 0.276544
v 0.228358 -0.350602 0.446410
v 0.226645 -0.152282 0.549958
v 0.209416 0.081473 0.559812
v 0.206606 0.458955 0.325708
v 0.233118 0.549484 0.145591
v 0.228570 0.562251 0.028982
v 0.233118 0.561541 -0.088321
v 0.206606 0.490012 -0.276792
v 0.209416 0.138601 -0.548467
v -0.171533 -0.285527 -0.484279
v -0.200240 -0.552022 -0.131539
v -0.202503 -0.502815 0.274151
v -0.171533 -0.333808 0.452354
v -0.172212 0.286549 0.480706
v -0.192071 0.550747 0.134401
v -0.171533 0.555900 -0.083825
v -0.017025 -0.100949 -0.025874
v -0.056814 -0.111371 -0.005741
v -0.017025 -0.103074 0.015357
v -0.014013 -0.044322 0.092786
v -0.016351 0.068457 0.077347
v -0.017025 0.100949 0.025874
v -0.056814 0.111371 0.005741
v -0.017025 0.103074 -0.015357
v -0.016351 0.076047 -0.069898
v -0.014013 -0.034547 -0.096851
vn -0.0484 -0.4167 -0.9078
vn -0.0438 -0.7534 -0.6561
vn -0.0438 -0.8169 0.5752
vn -0.0484 -0.5078 0.8601
vn -0.0394 -0.1317 0.9905
vn -0.0232 0.2430 0.9697
vn -0.0142 0.5897 0.8075
vn -0.0361 0.8347 0.5496
vn -0.0361 0.8867 -0.4608
vn -0.0142 0.6696 -0.7426
vn -0.0232 0.3414 -0.9396
vn -0.0394 -0.0291 -0.9988
vn -0.9555 0.1263 0.2665
vn -0.1728 0.6576 0.7333
vn -0.4530 0.3335 -0.8268
vn 1.0000 0.0036 -0.0081
vn 1.0000 -0.0030 0.0060
vn 1.0000 0.0027 0.0085
vn 1.0000 -0.0045 0.0038
vn -0.9994 0.0342 -0.0097
vn -0.7734 0.5352 -0.3398
vn -0.8966 -0.0925 0.4331
vn 0.6755 0.0524 0.7355
vn -0.0001 -0.9941 -0.1088
vn 0.9007 0.2975 0.3166
vn 0.8832 0.4545 0.1159
vn 0.8833 0.2229 -0.4123
vn 0.9009 -0.3617 -0.2401
vn 0.9055 -0.0823 0.4164
vn -0.0033 -0.8854 -0.4648
vn -0.0889 -0.9914 -0.0963
vn -0.9822 -0.0775 -0.1713
vn -0.9822 -0.0947 0.1624
vn 0.0075 0.8940 0.4480
vn -0.0205 0.7742 -0.6327
vn 0.0004 0.9945 0.1043
vn -0.0205 0.7050 0.7089
vn 0.7711 -0.5213 0.3656
vn 0.4877 0.5463 -0.6810
vn 0.4877 0.4734 0.7335
vn 0.0400 0.1355 -0.9900
vn 0.0210 -0.6010 -0.7990
vn 0.0333 -0.8368 -0.5465
vn 0.0062 0.9775 0.2107
vn -0.0126 -0.9948 0.1011
vn 0.0333 -0.8885 0.4576
vn 0.0210 -0.6799 0.7330
vn 0.0207 -0.3424 0.9393
vn 0.0400 0.0330 0.9987
vn 0.0487 0.4330 0.9001
vn 0.0429 0.7550 0.6543
vn 0.0062 0.9940 -0.1091
vn -0.9998 0.0123 0.0152
vn 0.0429 0.8183 -0.5732
vn 0.0487 0.5233 -0.8508
vn 0.0207 -0.2440 -0.9696
vn 0.9577 -0.1229 -0.2600
vn 0.9577 -0.1490 0.2460
vn -0.9555 0.1530 -0.2521
vn -0.1728 0.7295 -0.6618
vn -0.2407 -0.3266 -0.9140
vn 0.6997 -0.7127 0.0490
vn 0.9993 0.0211 -0.0314
vn 1.0000 0.0048 0.0080
vn 1.0000 -0.0024 -0.0063
vn 1.0000 0.0056 -0.0074
vn 0.9993 0.0178 0.0334
vn 0.9998 -0.0034 -0.0178
vn 1.0000 -0.0040 -0.0055
vn 1.0000 -0.0045 0.0051
vn 0.9998 0.0172 0.0073
vn 0.9998 -0.0052 0.0173
vn 0.9998 0.0178 -0.0055
vn 1.0000 -0.0041 -0.0042
vn -0.9999 -0.0063 -0.0123
vn -1.0000 -0.0015 -0.0001
vn -0.9998 -0.0126 0.0178
vn -0.9999 -0.0075 0.0116
vn -0.9986 0.0520 0.0099
vn -0.9998 0.0138 -0.0138
vn -0.9998 -0.0180 0.0129
vn -0.9998 -0.0107 -0.0190
vn -0.9959 -0.0650 -0.0632
vn -0.9983 -0.0469 0.0346
vn -0.9997 -0.0002 0.0260
vn -0.9997 0.0024 -0.0259
vn -0.4530 0.2467 0.8567
vn -0.9998 -0.0166 -0.0147
vn 0.0192 -0.9997 -0.0118
vn -0.7734 0.4974 0.3930
vn -0.8966 -0.0475 -0.4404
vn -0.7903 -0.4928 -0.3640
vn -0.7903 -0.5276 0.3114
vn 0.6755 0.1278 -0.7262
vn 0.8833 0.1793 0.4331
vn 0.0620 0.8217 0.5665
vn -0.0628 -0.9428 -0.3275
vn 0.1018 0.9851 -0.1383
vn 0.0841 -0.8516 0.5175
vn 0.8832 0.4640 -0.0686
vn 0.9007 0.3285 -0.2843
vn -0.1211 0.4987 -0.8583
vn -0.0140 -0.2226 0.9748
vn -0.3789 -0.3726 -0.8471
vn 0.0841 -0.7938 -0.6023
vn 0.9055 -0.0391 -0.4226
vn 0.8866 -0.2157 -0.4091
vn 0.1018 0.9657 0.2389
vn -0.0628 -0.9714 0.2288
vn 0.8802 -0.4633 -0.1033
vn 0.0376 0.8850 -0.4640
vn -0.0733 -0.5338 0.8425
vn 0.8802 -0.4715 0.0551
vn 0.9009 -0.3844 0.2016
vn -0.0664 0.1270 0.9897
vn -0.0733 -0.4443 -0.8929
vn 0.8866 -0.2566 0.3847
vn -0.9897 -0.0022 0.1429
vn -0.9897 0.0125 -0.1424
vn -0.9835 0.1629 0.0792
vn -0.0033 -0.9285 0.3713
vn -0.0495 0.2160 -0.9751
vn -0.9820 0.0831 -0.1694
vn -0.9806 -0.1359 -0.1412
vn -0.9705 -0.0987 0.2200
vn 0.0075 0.9353 -0.3537
vn -0.9801 -0.1178 0.1599
vn -0.0099 -0.7064 -0.7077
vn 0.0081 0.0728 -0.9973
vn 0.0227 0.2639 -0.9643
vn 0.0744 0.9931 -0.0906
vn 0.0201 0.7237 -0.6898
vn 0.0081 -0.0301 0.9995
vn 0.0201 0.6489 0.7606
vn -0.0099 -0.7754 0.6314
vn -0.1211 0.4078 0.9050
vn 0.7711 -0.4810 -0.4172
vn 0.4877 -0.5463 0.6810
vn 0.4877 -0.4734 -0.7335
vn 0.7528 0.1046 0.6499
vn 0.7914 0.5216 0.3189
vn 0.7914 0.5516 -0.2636
vn 0.7528 0.1708 -0.6357
vt 0.920536 0.970885
vt 0.892182 0.529115
vt 0.953123 0.529115
vt 0.858566 0.970885
vt 0.824813 0.529115
vt 0.671819 0.529115
vt 0.641435 0.970885
vt 0.607818 0.529115
vt 0.579464 0.970885
vt 0.546877 0.529115
vt 0.514067 0.970885
vt 0.485933 0.529115
vt 0.454465 0.970885
vt 0.420536 0.529115
vt 0.390625 0.970885
vt 0.359375 0.529115
vt 0.325947 0.970885
vt 0.295535 0.529115
vt 0.174053 0.970885
vt 0.140625 0.529115
vt 0.204465 0.529115
vt 0.109375 0.970885
vt 0.079464 0.529115
vt 0.045535 0.970885
vt 0.015368 0.529115
vt 0.983331 0.970885
vt 0.994535 0.529115
vt 0.636036 0.041035
vt 0.576529 0.091304
vt 0.718224 0.019532
vt 0.894042 0.338142
vt 0.843593 0.391399
vt 0.833383 0.399945
vt 0.783095 0.083621
vt 0.843593 0.108601
vt 0.833383 0.100055
vt 0.153258 0.390187
vt 0.035577 0.341538
vt 0.082743 0.287892
vt 0.101015 0.431537
vt 0.082743 0.212108
vt 0.035577 0.158462
vt 0.153258 0.109813
vt 0.182944 0.474923
vt 0.917223 0.278451
vt 0.962087 0.159077
vt 0.894327 0.161875
vt 0.350293 0.111372
vt 0.415446 0.208467
vt 0.392791 0.159011
vt 0.217078 0.415691
vt 0.284903 0.417823
vt 0.783095 0.416379
vt 0.722048 0.419119
vt 0.583132 0.220019
vt 0.077832 0.250000
vt 0.280732 0.256187
vt 0.392791 0.340989
vt 0.260957 0.276272
vt 0.415446 0.291533
vt 0.260957 0.223728
vt 0.284903 0.082177
vt 0.219268 0.243813
vt 0.107083 0.159248
vt 0.228457 0.228060
vt 0.228457 0.271940
vt 0.480798 0.250000
vt 0.774756 0.266520
vt 0.794728 0.970885
vt 0.750000 0.970885
vt 0.749990 0.219239
vt 0.722048 0.080881
vt 0.724971 0.233943
vt 0.724971 0.266057
vt 0.749990 0.280761
vt 0.418086 0.250000
vt 0.422709 0.250000
vt 0.350293 0.388628
vt 0.250292 0.250147
vt 0.280732 0.243813
vt 0.219268 0.256187
vt 0.002368 0.970885
vt 0.250000 0.529115
vt 0.250000 0.970885
vt 0.705272 0.970885
vt 0.818252 0.474984
vt 0.718224 0.480468
vt 0.363964 0.458965
vt 0.281744 0.480488
vt 0.426997 0.405776
vt 0.363964 0.041035
vt 0.426997 0.094224
vt 0.281744 0.019512
vt 0.636036 0.458965
vt 0.576529 0.408696
vt 0.651053 0.111806
vt 0.655754 0.108950
vt 0.603672 0.335556
vt 0.583836 0.283804
vt 0.470333 0.326441
vt 0.486140 0.250000
vt 0.101015 0.068463
vt 0.470333 0.173559
vt 0.182943 0.025077
vt 0.014236 0.250000
vt 0.529256 0.173754
vt 0.603672 0.164444
vt 0.774756 0.233480
vt 0.898060 0.067377
vt 0.818252 0.025016
vt 0.651175 0.388408
vt 0.529256 0.326246
vt 0.965003 0.341863
vt 0.898060 0.432623
vt 0.513860 0.250000
vt 0.217078 0.084309
vt 0.107083 0.340752
s 0
usemtl rin.001
f 45/31/14 68/32/14 43/33/14
f 47/34/15 71/35/15 46/36/15
f 73/55/24 64/56/24 63/41/24
f 75/57/25 54/58/25 84/59/25
f 75/57/26 55/60/26 54/58/26
f 78/61/27 60/62/27 59/48/27
f 80/63/28 62/64/28 79/65/28
f 84/59/29 67/51/29 83/66/29
f 75/57/30 76/67/30 34/68/30
f 36/71/32 48/72/32 37/73/32
f 38/74/33 53/54/33 33/75/33
f 81/76/34 37/73/34 80/63/34
f 58/50/35 70/47/35 59/48/35
f 69/45/36 56/77/36 55/60/36
f 45/31/37 54/58/37 40/78/37
f 32/79/38 78/61/38 77/80/38
f 32/79/39 81/76/39 80/63/39
f 32/79/40 82/81/40 81/76/40
f 46/36/60 71/35/60 70/47/60
f 49/96/61 72/97/61 48/72/61
f 51/98/62 74/99/62 73/55/62
f 38/74/76 33/75/76 34/68/76 76/67/76 35/108/76 36/71/76 37/73/76 81/76/76
f 43/33/87 68/32/87 44/53/87
f 65/39/89 64/56/89 73/55/89 74/99/89
f 84/59/95 40/78/95 39/52/95
f 52/111/96 38/74/96 83/66/96 42/37/96
f 53/54/97 67/51/97 84/59/97 33/75/97
f 44/53/98 33/75/98 84/59/98 39/52/98
f 68/32/99 40/78/99 84/59/99 34/68/99
f 77/80/100 58/50/100 57/49/100
f 77/80/101 78/61/101 58/50/101
f 45/31/102 34/68/102 84/59/102 54/58/102
f 75/57/103 34/68/103 69/45/103 55/60/103
f 70/47/104 35/108/104 77/80/104 57/49/104
f 71/35/105 35/108/105 78/61/105 59/48/105
f 78/61/106 79/65/106 61/116/106
f 79/65/107 41/43/107 61/116/107
f 47/34/108 60/62/108 78/61/108 36/71/108
f 48/72/109 36/71/109 78/61/109 61/116/109
f 80/63/110 63/41/110 62/64/110
f 72/97/111 41/43/111 79/65/111 37/73/111
f 50/107/112 37/73/112 79/65/112 62/64/112
f 82/81/113 66/117/113 65/39/113
f 82/81/114 83/66/114 66/117/114
f 74/99/115 38/74/115 82/81/115 65/39/115
f 51/98/116 66/117/116 83/66/116 38/74/116
f 83/66/117 67/51/117 42/37/117
f 68/32/118 34/68/118 33/75/118 44/53/118
f 47/34/119 36/71/119 35/108/119 71/35/119
f 34/68/120 45/31/120 69/45/120
f 76/67/121 77/80/121 35/108/121
f 73/55/122 63/41/122 80/63/122 37/73/122
f 37/73/123 48/72/123 72/97/123
f 37/73/124 50/107/124 73/55/124
f 38/74/125 74/99/125 51/98/125
f 81/76/126 82/81/126 38/74/126
f 38/74/127 52/111/127 53/54/127
f 62/64/128 41/43/128 49/96/128 50/107/128
f 48/72/129 61/116/129 60/62/129 47/34/129
f 72/97/130 49/96/130 41/43/130
f 57/49/131 56/77/131 69/45/131 70/47/131
f 70/47/132 71/35/132 59/48/132
f 39/52/133 67/51/133 53/54/133 44/53/133
f 68/32/134 45/31/134 40/78/134
f 42/37/135 66/117/135 51/98/135 52/111/135
f 70/47/136 58/50/136 78/61/136 35/108/136
f 32/79/137 75/57/137 84/59/137
f 32/79/138 76/67/138 75/57/138
f 32/79/139 77/80/139 76/67/139
f 32/79/140 79/65/140 78/61/140
f 32/79/141 80/63/141 79/65/141
f 32/79/142 83/66/142 82/81/142
f 32/79/143 84/59/143 83/66/143
usemtl caucho.001
f 1/1/1 9/2/1 7/3/1
f 8/4/2 11/5/2 9/2/2
f 14/6/3 15/7/3 16/8/3
f 16/8/4 2/9/4 18/10/4
f 17/11/5 20/12/5 18/10/5
f 19/13/6 3/14/6 20/12/6
f 3/14/7 21/15/7 22/16/7
f 23/17/8 24/18/8 22/16/8
f 27/19/9 30/20/9 28/21/9
f 29/22/10 4/23/10 30/20/10
f 31/24/11 5/25/11 4/23/11
f 6/26/12 7/3/12 5/27/12
f 3/28/13 22/29/13 20/30/13
f 42/37/16 27/38/16 65/39/16
f 42/37/17 29/40/17 27/38/17
f 63/41/18 23/42/18 41/43/18
f 42/37/19 31/44/19 29/40/19
f 69/45/20 14/46/20 70/47/20
f 59/48/21 57/49/21 58/50/21
f 67/51/22 39/52/22 42/37/22
f 44/53/23 53/54/23 43/33/23
f 14/6/31 11/5/31 10/69/31 12/70/31
f 31/24/41 6/82/41 5/25/41
f 1/1/42 8/4/42 9/2/42
f 8/4/43 10/69/43 11/5/43
f 25/83/44 24/18/44 23/17/44 26/84/44
f 12/70/45 13/85/45 14/6/45
f 13/85/46 15/7/46 14/6/46
f 16/8/47 15/7/47 2/9/47
f 2/9/48 17/11/48 18/10/48
f 17/11/49 19/13/49 20/12/49
f 19/13/50 21/15/50 3/14/50
f 22/16/51 21/15/51 23/17/51
f 28/21/52 25/83/52 26/84/52 27/19/52
f 7/86/53 43/33/53 53/54/53 5/87/53
f 27/19/54 29/22/54 30/20/54
f 29/22/55 31/24/55 4/23/55
f 6/26/56 1/1/56 7/3/56
f 1/88/57 6/89/57 8/90/57
f 2/91/58 15/92/58 17/93/58
f 4/94/59 5/87/59 30/95/59
f 15/92/63 59/48/63 60/62/63 17/93/63
f 10/100/64 55/60/64 56/77/64 12/101/64
f 41/43/65 23/42/65 21/102/65
f 12/101/66 56/77/66 57/49/66 13/103/66
f 8/90/67 6/89/67 39/52/67 40/78/67
f 17/93/68 60/62/68 41/43/68 19/104/68
f 26/105/69 23/42/69 63/41/69 64/56/69
f 26/105/70 64/56/70 65/39/70 27/38/70
f 8/90/71 40/78/71 55/60/71 10/100/71
f 31/44/72 42/37/72 39/52/72 6/89/72
f 15/92/73 13/103/73 57/49/73 59/48/73
f 41/43/74 21/102/74 19/104/74
f 24/106/75 50/107/75 49/96/75 22/29/75
f 46/36/77 16/109/77 18/110/77
f 30/95/78 52/111/78 51/98/78 28/112/78
f 14/46/79 69/45/79 45/31/79 11/113/79
f 20/30/80 48/72/80 46/36/80 18/110/80
f 5/87/81 53/54/81 52/111/81 30/95/81
f 43/33/82 7/86/82 9/114/82
f 25/115/83 73/55/83 50/107/83 24/106/83
f 28/112/84 51/98/84 73/55/84 25/115/84
f 11/113/85 45/31/85 43/33/85 9/114/85
f 16/109/86 46/36/86 70/47/86 14/46/86
f 20/30/88 22/29/88 49/96/88 48/72/88
f 54/58/90 55/60/90 40/78/90
f 61/116/91 41/43/91 60/62/91
f 62/64/92 63/41/92 41/43/92
f 66/117/93 42/37/93 65/39/93
f 47/34/94 46/36/94 48/72/94
