# Blender 4.3.2
# www.blender.org
mtllib spawn_arrow.mtl
o Cube
v 0.618625 0.174228 -1.716795
v 0.618625 -0.174229 -1.716795
v 1.000000 0.174228 0.164137
v 1.000000 -0.174229 0.164137
v 0.000000 -0.174229 -1.716795
v 0.000000 0.174228 2.059665
v 0.000000 -0.174229 2.059665
v 0.000000 0.174228 -1.716795
v 0.258990 0.174228 0.162449
v 0.258990 -0.174229 0.162449
v 0.000000 -0.174229 1.831651
v 0.000000 0.174228 1.831651
v -0.618625 0.174228 -1.716795
v -0.618625 -0.174229 -1.716795
v -1.000000 0.174228 0.164137
v -1.000000 -0.174229 0.164137
v -0.258990 0.174228 0.162449
v -0.258990 -0.174229 0.162449
vn -0.0000 -1.0000 -0.0000
vn 0.0023 -0.0000 -1.0000
vn -0.0000 -0.0000 -1.0000
vn 0.8845 -0.0000 0.4666
vn -0.0000 1.0000 -0.0000
vn 0.9822 -0.0000 0.1880
vn -0.0023 -0.0000 -1.0000
vn -0.8845 -0.0000 0.4666
vn -0.9822 -0.0000 0.1880
vt 0.250000 0.734906
vt 0.375000 0.734906
vt 0.375000 0.750000
vt 0.250000 0.750000
vt 0.625000 0.734906
vt 0.625000 0.750000
vt 0.375000 0.375000
vt 0.625000 0.375000
vt 0.625000 0.500000
vt 0.375000 0.500000
vt 0.625000 0.875000
vt 0.375000 0.875000
vt 0.750000 0.734906
vt 0.750000 0.750000
vt 0.750000 0.500000
vt 0.250000 0.500000
s 0
usemtl Material
f 11/1/1 10/2/1 4/3/1 7/4/1
f 10/2/2 9/5/2 3/6/2 4/3/2
f 5/7/3 8/8/3 1/9/3 2/10/3
f 4/3/4 3/6/4 6/11/4 7/12/4
f 9/5/5 12/13/5 6/14/5 3/6/5
f 1/9/5 8/15/5 12/13/5 9/5/5
f 2/10/6 1/9/6 9/5/6 10/2/6
f 5/16/1 2/10/1 10/2/1 11/1/1
f 11/1/1 7/4/1 16/3/1 18/2/1
f 18/2/7 16/3/7 15/6/7 17/5/7
f 5/7/3 14/10/3 13/9/3 8/8/3
f 16/3/8 7/12/8 6/11/8 15/6/8
f 17/5/5 15/6/5 6/14/5 12/13/5
f 13/9/5 17/5/5 12/13/5 8/15/5
f 14/10/9 18/2/9 17/5/9 13/9/9
f 5/16/1 11/1/1 18/2/1 14/10/1
