# Blender 4.3.2
# www.blender.org
mtllib meta_line_1.mtl
o Cube.006
v -0.161940 -0.527286 11.901142
v -0.161940 3.504437 11.901142
v 0.159839 -0.527286 11.901142
v 0.159839 3.504437 11.901142
v -0.229373 4.154692 12.089457
v 0.227273 4.154692 12.089457
v -0.229373 4.154692 12.708410
v 0.227273 4.154692 12.708410
v 0.227273 -1.029807 12.587397
v 0.227273 -0.787780 12.708410
v 0.106259 -1.029807 12.708410
v -0.108359 -1.029807 12.708410
v -0.157529 -0.787780 12.708410
v 0.227273 -1.029807 12.210470
v 0.166766 -0.869618 12.032834
v -0.108359 -0.908793 12.089457
v -0.229373 -0.908793 12.210470
v -0.210429 -0.801617 12.036553
v -0.229373 -0.787780 12.089457
v -0.229373 -13.347922 12.210470
v -0.108359 -13.347922 12.089457
v -0.108359 -13.468936 12.210470
v 0.227273 -13.347922 12.210470
v 0.106259 -13.468936 12.210470
v 0.106259 -13.347922 12.089457
v -0.229373 -13.347922 12.587397
v -0.108359 -13.468936 12.587397
v -0.108359 -13.347922 12.708410
v 0.227273 -13.347922 12.587397
v 0.106259 -13.347922 12.708410
v 0.106259 -13.468936 12.587397
v -0.161940 -0.527286 -11.901142
v -0.161940 3.504437 -11.901142
v 0.159839 -0.527286 -11.901142
v 0.159839 3.504437 -11.901142
v -0.229373 4.154692 -12.089457
v 0.227273 4.154692 -12.089457
v -0.229373 4.154692 -12.708410
v 0.227273 4.154692 -12.708410
v 0.227273 -1.029807 -12.587397
v 0.227273 -0.787780 -12.708410
v 0.106259 -1.029807 -12.708410
v -0.108359 -1.029807 -12.708410
v -0.157529 -0.787780 -12.708410
v 0.227273 -1.029807 -12.210470
v 0.166766 -0.869618 -12.032834
v -0.108359 -0.908793 -12.089457
v -0.229373 -0.908793 -12.210470
v -0.204759 -0.794172 -12.063005
v -0.229373 -13.347922 -12.210470
v -0.108359 -13.347922 -12.089457
v -0.108359 -13.468936 -12.210470
v 0.227273 -13.347922 -12.210470
v 0.106259 -13.468936 -12.210470
v 0.106259 -13.347922 -12.089457
v -0.229373 -13.347922 -12.587397
v -0.108359 -13.468936 -12.587397
v -0.108359 -13.347922 -12.708410
v 0.227273 -13.347922 -12.587397
v 0.106259 -13.347922 -12.708410
v 0.106259 -13.468936 -12.587397
vn 1.0000 -0.0000 -0.0000
vn -0.0000 -1.0000 -0.0000
vn -0.1788 0.9628 0.2024
vn 0.0435 -0.8646 -0.5006
vn -0.0000 -0.0000 1.0000
vn 0.9751 -0.0051 -0.2217
vn -0.0000 0.2782 -0.9605
vn -0.0000 1.0000 -0.0000
vn -0.9983 -0.0061 0.0582
vn -0.1147 -0.0020 -0.9934
vn -0.9967 0.0025 0.0815
vn -0.9415 -0.0000 -0.3371
vn 0.6667 -0.3333 0.6667
vn -0.3519 -0.6619 -0.6619
vn -0.5774 -0.5774 -0.5773
vn 0.5774 -0.5774 -0.5773
vn -0.5774 -0.5774 0.5773
vn 0.5774 -0.5774 0.5773
vn 0.9880 0.1391 -0.0676
vn -0.5817 -0.0023 0.8134
vn -0.7071 -0.0000 -0.7071
vn 0.8538 -0.0033 -0.5207
vn -0.0000 -0.7071 -0.7071
vn 0.7071 -0.0000 0.7071
vn -0.0000 -0.7071 0.7071
vn 0.7071 -0.7071 -0.0000
vn -0.7071 -0.7071 -0.0000
vn 0.9989 -0.0058 -0.0463
vn -1.0000 -0.0000 -0.0000
vn 0.0146 -0.8649 0.5017
vn -0.0000 -0.0000 -1.0000
vn 0.9751 -0.0051 0.2217
vn -0.0000 0.2782 0.9605
vn -0.9993 -0.0061 -0.0378
vn -0.1147 -0.0020 0.9934
vn -0.9967 0.0025 -0.0815
vn -0.9544 -0.0017 0.2986
vn 0.6667 -0.3333 -0.6667
vn -0.5635 -0.6040 0.5635
vn 0.9880 0.1391 0.0676
vn -0.5817 -0.0023 -0.8134
vn -0.7071 -0.0000 0.7071
vn 0.8538 -0.0033 0.5207
vn 0.7071 -0.0000 -0.7071
vn 0.9989 -0.0058 0.0463
vt 0.007223 0.040029
vt 0.995139 0.040029
vt 0.995139 0.972094
vt 0.007223 0.972094
vt 0.191251 0.750000
vt 0.308748 0.750000
vt 0.308748 0.750000
vt 0.191252 0.750000
vt 0.586947 0.649182
vt 0.000000 0.000000
vt 0.585809 0.198755
vt -0.025862 1.065745
vt -0.025862 1.051356
vt 0.231349 1.051356
vt 0.231349 1.065745
vt 0.377031 0.816251
vt 0.583778 0.816251
vt 0.583778 0.933749
vt 0.377031 0.933748
vt 0.375000 0.750000
vt 0.625000 0.750000
vt 0.505441 0.750000
vt 0.875000 0.750000
vt 0.377031 0.750000
vt 0.583778 0.750000
vt 0.587841 0.750000
vt 0.625000 1.000000
vt 0.587841 0.960668
vt 0.625000 0.000000
vt 0.587841 0.000000
vt 0.587608 0.000000
vt 0.585809 0.000000
vt 0.194803 0.745438
vt 0.311668 0.747336
vt 0.377031 0.000000
vt 0.375000 0.000000
vt 0.526587 0.000000
vt 0.600797 0.038870
vt 0.576538 0.000000
vt 0.129440 0.742774
vt 0.377031 1.000000
vt 0.375000 0.933748
vt 0.375000 0.816252
vt 0.586467 0.750000
vt 0.585809 1.000000
vt 0.125000 0.750000
vt 0.488560 1.051356
vt 0.488560 1.065745
vt 0.998459 0.978278
vt 0.004138 0.978278
vt 0.004138 0.010573
vt 0.998459 0.010572
s 0
usemtl flag
f 3/1/1 34/2/1 35/3/1 4/4/1
f 3/12/2 1/13/2 32/14/2 34/15/2
f 2/15/8 4/14/8 35/47/8 33/48/8
f 2/49/29 33/50/29 32/51/29 1/52/29
usemtl palo
f 22/5/2 24/6/2 31/7/2 27/8/2
f 46/9/3 44/10/3 47/11/3
f 17/10/4 18/10/4 1/10/4 3/10/4 15/10/4 13/10/4
f 30/16/5 11/17/5 12/18/5 28/19/5
f 3/20/6 4/21/6 6/21/6 15/22/6
f 4/21/7 2/23/7 5/23/7 6/21/7
f 6/21/8 5/23/8 7/23/8 8/21/8
f 23/24/1 14/25/1 9/25/1 29/24/1
f 10/26/5 8/21/5 7/27/5 13/28/5
f 5/29/9 19/30/9 18/31/9 17/32/9 13/30/9 7/29/9
f 21/33/10 16/11/10 15/9/10 25/34/10
f 17/32/11 20/35/11 26/35/11 13/30/11
f 2/23/12 1/36/12 18/37/12 19/38/12 5/23/12
f 9/25/13 10/26/13 11/17/13
f 16/39/14 17/32/14 18/37/14 19/38/14
f 20/40/15 21/33/15 22/5/15
f 23/24/16 24/6/16 25/34/16
f 26/41/17 27/42/17 28/19/17
f 29/24/18 30/16/18 31/43/18
f 15/44/19 10/26/19 9/25/19 14/25/19
f 28/19/20 12/18/20 13/45/20 26/41/20
f 20/40/21 17/32/21 16/11/21 21/33/21
f 14/25/22 23/24/22 25/34/22 15/9/22
f 21/33/23 25/34/23 24/6/23 22/5/23
f 11/17/24 30/16/24 29/24/24 9/25/24
f 27/42/25 31/43/25 30/16/25 28/19/25
f 31/7/26 24/6/26 23/24/26 29/24/26
f 22/5/27 27/8/27 26/46/27 20/46/27
f 10/26/5 13/28/5 12/18/5 11/17/5
f 15/44/28 6/21/28 8/21/28 10/26/28
f 52/5/2 57/8/2 61/7/2 54/6/2
f 48/10/30 44/10/30 46/10/30 34/10/30 32/10/30 49/10/30
f 60/16/31 58/19/31 43/18/31 42/17/31
f 34/20/32 46/22/32 37/21/32 35/21/32
f 35/21/33 37/21/33 36/23/33 33/23/33
f 37/21/8 39/21/8 38/23/8 36/23/8
f 53/24/1 59/24/1 40/25/1 45/25/1
f 41/26/31 44/28/31 38/27/31 39/21/31
f 36/29/34 38/29/34 44/30/34 48/32/34 49/30/34
f 51/33/35 55/34/35 46/9/35 47/11/35
f 48/32/36 44/30/36 56/35/36 50/35/36
f 33/23/37 36/23/37 49/37/37 32/36/37
f 40/25/38 42/17/38 41/26/38
f 47/39/39 49/37/39 48/32/39
f 50/40/17 52/5/17 51/33/17
f 53/24/18 55/34/18 54/6/18
f 56/41/15 58/19/15 57/42/15
f 59/24/16 61/43/16 60/16/16
f 46/44/40 45/25/40 40/25/40 41/26/40
f 58/19/41 56/41/41 44/45/41 43/18/41
f 50/40/42 51/33/42 47/11/42 48/32/42
f 45/25/43 46/9/43 55/34/43 53/24/43
f 51/33/25 52/5/25 54/6/25 55/34/25
f 42/17/44 40/25/44 59/24/44 60/16/44
f 57/42/23 58/19/23 60/16/23 61/43/23
f 61/7/26 59/24/26 53/24/26 54/6/26
f 52/5/27 50/46/27 56/46/27 57/8/27
f 41/26/31 42/17/31 43/18/31 44/28/31
f 46/44/45 41/26/45 39/21/45 37/21/45
