# Blender 4.3.2
# www.blender.org
mtllib vision_gt_front_wheel.mtl
o Circle.002
v 0.085437 -0.127512 -0.219830
v 0.085453 0.212217 -0.149008
v 0.083022 0.141463 0.179016
v 0.083021 -0.170583 0.151745
v 0.085325 -0.125760 0.219742
v 0.086592 -0.067360 -0.249255
v 0.083022 0.084219 -0.212399
v 0.084828 0.253762 0.001871
v 0.083021 0.170281 -0.152078
v 0.083021 -0.046494 -0.223721
v 0.085325 0.125458 -0.220076
v 0.087479 0.043865 -0.256836
v 0.084828 -0.254064 0.001871
v 0.083021 0.046193 0.223387
v 0.085238 0.127538 0.218742
v 0.087479 -0.044166 0.256503
v 0.086592 0.067058 0.248922
v 0.085453 -0.212518 0.148675
v 0.083022 -0.084520 0.212066
v 0.083022 0.225833 -0.033217
v 0.085433 -0.250445 -0.044415
v 0.085453 0.212217 0.148675
v 0.085453 -0.212518 -0.149008
v 0.064802 -0.130985 -0.133602
v 0.061642 0.146913 -0.100866
v 0.064802 0.130683 0.133269
v 0.061642 -0.013828 -0.177877
v 0.061642 0.160590 0.076844
v 0.061642 0.013526 0.177544
v 0.061642 -0.147214 0.100533
v 0.061642 -0.160891 -0.077177
v 0.023597 -0.067773 -0.066108
v 0.023908 0.078260 -0.053659
v 0.023597 0.067471 0.065775
v 0.023908 0.085380 0.040993
v 0.023597 0.023145 -0.091700
v 0.023857 0.006975 0.094354
v 0.023908 -0.007271 -0.094818
v 0.023908 -0.078561 0.053326
v 0.023908 -0.085682 -0.041326
v 0.023597 -0.091069 0.025425
v 0.023654 -0.023463 0.091503
v 0.023597 0.090767 -0.025758
v -0.007586 -0.032788 0.046256
v -0.007586 0.032486 -0.046589
v -0.007586 -0.024035 -0.051642
v -0.007586 0.056371 0.004887
v -0.007586 0.023733 0.051309
v -0.007586 -0.056672 -0.005220
v -0.021284 0.031866 0.015512
v -0.023347 -0.000151 -0.033019
v -0.023243 -0.024843 -0.021000
v -0.021284 -0.032168 0.015512
v -0.024582 -0.000308 0.027716
v -0.022654 -0.000151 0.033854
v -0.023243 0.024542 -0.021000
v 0.096274 -0.222304 0.155387
v 0.096318 0.269518 -0.006114
v 0.096291 0.086602 0.255206
v 0.096291 0.086602 -0.255539
v 0.096291 -0.086904 -0.255539
v 0.096291 -0.086904 0.255206
v 0.096318 -0.269820 -0.006114
v 0.096274 0.222002 0.155387
v 0.096274 0.222002 -0.155720
v 0.096274 -0.222304 -0.155720
v 0.097856 0.274381 -0.093313
v 0.097841 -0.263135 0.117540
v 0.097800 0.286457 0.029357
v 0.097856 -0.274683 -0.093313
v 0.097856 0.092996 0.274366
v 0.097856 0.092996 -0.274699
v 0.097800 -0.286759 0.029357
v 0.097856 -0.093298 -0.274699
v 0.097820 -0.000151 -0.287306
v 0.097820 -0.000151 0.286972
v 0.097786 0.206703 -0.200733
v 0.097841 0.262833 0.117540
v 0.097856 -0.093298 0.274366
v 0.097786 -0.200718 0.206688
v 0.097786 0.200416 0.206688
v 0.097786 -0.207005 -0.200733
v -0.158227 0.286452 -0.029738
v -0.158229 0.286462 0.050371
v -0.158229 -0.050688 0.286446
v -0.158229 -0.262871 -0.127685
v -0.158229 0.050387 0.286446
v -0.158229 0.050387 -0.286779
v -0.158229 -0.050688 -0.286779
v -0.158229 0.209533 -0.203429
v -0.158229 -0.127669 -0.262887
v -0.158229 0.262570 0.127352
v -0.158229 -0.127669 0.262554
v -0.158227 -0.286753 -0.029738
v 0.092927 0.084620 0.236383
v 0.093047 0.251398 -0.000762
v 0.092188 0.231035 -0.107971
v 0.092927 -0.162623 0.191522
v 0.093052 -0.125165 0.217965
v 0.093055 -0.085386 -0.236853
v 0.093047 -0.251700 0.000429
v 0.083022 -0.226135 0.032884
v 0.092188 -0.231337 0.107637
v 0.092188 0.022081 -0.254282
v 0.092188 -0.209105 -0.146478
v 0.083022 -0.141765 -0.179349
v 0.093052 0.124863 -0.218299
v 0.092950 -0.126735 -0.217093
v 0.093052 0.126250 0.217165
v 0.092188 0.208803 0.146145
v 0.092959 0.246959 0.044844
v 0.083021 -0.216926 -0.071809
v 0.092959 -0.247261 -0.045177
v 0.083021 0.216624 0.071476
v 0.092927 0.162322 -0.191855
v 0.092188 -0.022383 0.253949
v 0.072591 -0.150813 0.108429
v 0.072591 -0.018867 -0.184942
v 0.072591 0.150511 -0.108762
v 0.067872 -0.122390 -0.121195
v 0.069201 -0.180192 0.045398
v 0.069201 -0.050712 0.178536
v 0.072591 0.018565 0.184608
v 0.069201 0.050410 -0.178870
v 0.038846 0.023385 -0.101005
v 0.067872 0.122088 0.120861
v 0.069201 0.179891 -0.045731
v 0.072591 -0.169529 -0.076346
v 0.072591 0.169227 0.076013
v 0.030458 0.081484 0.038903
v 0.030458 -0.081785 -0.039236
v 0.029732 0.086107 -0.024214
v 0.029929 -0.007101 -0.089814
v 0.029732 -0.064106 -0.062845
v 0.038531 0.085809 -0.056515
v 0.038531 -0.086111 0.056182
v 0.029732 -0.086409 0.023881
v 0.029732 0.063804 0.062512
v 0.029732 -0.022454 0.086559
v 0.038531 0.005668 0.102451
v -0.000919 0.051982 0.004424
v -0.014054 -0.005887 0.031771
v 0.002159 0.016574 0.053596
v -0.013965 -0.025133 -0.021207
v -0.014270 0.031228 -0.008393
v -0.016314 -0.000151 -0.028007
v -0.000919 -0.030193 0.042686
v -0.000919 0.029891 -0.043019
v -0.000919 -0.022241 -0.047610
v -0.000919 -0.052283 -0.004757
v 0.001705 0.033316 0.047698
v -0.016407 0.019362 0.016583
v -0.016242 -0.026694 0.009802
v 0.103749 0.189124 0.189102
v 0.103749 -0.189425 0.189102
v 0.103786 -0.256744 -0.064717
v 0.103787 0.068297 0.255086
v 0.103824 -0.000151 0.263557
v 0.103786 0.256442 -0.064717
v 0.103787 0.068297 -0.255419
v 0.103712 0.261385 0.045950
v 0.103749 0.189124 -0.189435
v 0.103749 -0.189425 -0.189435
v 0.103787 -0.068598 -0.255419
v 0.103824 -0.000151 -0.263890
v 0.103787 -0.068598 0.255086
v 0.103712 -0.261687 0.045950
v 0.105931 0.232324 0.186325
v 0.105931 -0.232625 -0.186658
v 0.105878 -0.108198 0.277591
v 0.105878 0.107897 0.277591
v 0.105935 -0.000151 0.295024
v 0.105935 -0.000151 -0.295357
v 0.105934 -0.287418 0.072039
v 0.105878 0.107897 -0.277924
v 0.105969 -0.294722 -0.045457
v 0.105969 0.294421 -0.045457
v 0.105931 0.232324 -0.186658
v 0.105934 0.287117 0.072039
v 0.105878 -0.108198 -0.277924
v 0.105931 -0.232625 0.186325
v -0.158229 0.127368 -0.262887
v -0.158229 -0.262871 0.127352
v -0.158229 -0.286763 0.050371
v -0.158229 0.262570 -0.127685
v -0.158229 -0.000151 -0.291201
v -0.158227 0.295029 -0.021373
v -0.158229 -0.203413 0.209517
v -0.158229 0.127368 0.262554
v -0.158229 0.203112 0.209517
v -0.158229 -0.209835 -0.203429
v -0.158229 -0.000151 0.290867
v -0.158227 -0.295331 -0.021373
vn -0.9284 -0.1730 -0.3290
vn -0.9284 0.1730 0.3290
vn -0.9944 -0.1006 0.0327
vn -0.9921 0.1197 0.0381
vn -0.9941 -0.1019 -0.0371
vn -0.8941 0.4276 -0.1332
vn -0.8941 0.0985 -0.4370
vn -0.9096 -0.3439 -0.2332
vn -0.8941 -0.4276 0.1332
vn -0.9096 0.3439 0.2332
vn -0.8940 -0.0984 0.4371
vn -0.7952 0.5527 0.2495
vn -0.7948 0.0600 0.6039
vn -0.7910 0.5005 0.3518
vn -0.7934 -0.4980 -0.3499
vn -0.7902 0.0545 -0.6105
vn -0.7972 -0.4952 0.3452
vn -0.7997 0.4986 -0.3345
vn -0.7962 -0.0557 -0.6024
vn -0.7982 0.5463 -0.2538
vn -0.8024 -0.5304 -0.2737
vn -0.7888 -0.5575 0.2587
vn -0.8882 -0.2416 0.3909
vn -0.8805 0.4717 -0.0474
vn -0.8871 0.2404 0.3941
vn -0.9057 -0.3071 0.2923
vn -0.8606 0.2258 -0.4565
vn -0.9930 -0.1144 0.0303
vn -0.9931 0.1134 0.0305
vn -0.8205 0.2404 0.5186
vn -0.7240 0.6575 -0.2086
vn -0.8194 -0.2391 -0.5210
vn -0.8335 0.5318 -0.1499
vn -0.8199 -0.5699 -0.0553
vn -0.9987 0.0480 -0.0149
vn -0.9915 0.1068 0.0741
vn -0.9905 -0.1168 -0.0730
vn -0.9987 -0.0480 -0.0149
vn -0.0226 -0.9949 0.0979
vn -0.0226 0.9949 0.0979
vn 0.9537 0.2520 0.1645
vn 0.9206 0.3327 -0.2046
vn 0.9206 -0.0108 -0.3904
vn 0.9206 0.0108 0.3904
vn 0.9537 -0.2520 -0.1645
vn 0.9206 -0.3327 0.2046
vn 0.9114 -0.3259 0.2513
vn 0.9017 -0.1103 0.4180
vn 0.9097 0.3304 0.2516
vn 0.9097 -0.3304 -0.2516
vn 0.9114 0.3259 -0.2513
vn 0.9114 -0.0547 -0.4079
vn 0.7914 0.0938 -0.6041
vn 0.7666 -0.5251 -0.3697
vn 0.7874 0.5048 0.3538
vn 0.7999 -0.0137 0.6000
vn 0.7910 -0.5706 0.2208
vn 0.7972 0.5613 -0.2224
vn 0.8759 0.4743 0.0882
vn 0.8815 -0.1354 -0.4524
vn 0.9903 0.1145 0.0785
vn 0.8686 -0.3795 0.3185
vn 0.8216 0.5355 0.1954
vn 0.8692 -0.3172 -0.3792
vn 0.7780 -0.3606 0.5145
vn 0.8026 -0.5939 -0.0563
vn 0.8207 0.0979 0.5629
vn 0.7780 0.3606 -0.5145
vn 0.8211 -0.0980 -0.5623
vn 0.8693 0.3170 0.3792
vn 0.8686 0.3795 -0.3185
vn 0.8571 0.5073 -0.0895
vn 0.7915 -0.5739 -0.2101
vn 0.9985 0.0257 -0.0476
vn 0.9985 -0.0257 0.0476
vn 0.9982 -0.0590 0.0033
vn 0.9982 0.0590 0.0033
vn 0.9985 0.0257 0.0476
vn 0.9985 -0.0257 -0.0476
vn 0.0067 0.9017 0.4323
vn 0.0149 0.9153 -0.4025
vn 0.0149 -0.9153 -0.4025
vn 0.0067 -0.9017 0.4323
vn -0.2061 -0.1902 -0.9599
vn -0.0005 0.9097 0.4153
vn -0.0250 -0.7815 0.6234
vn -0.0005 -0.8145 0.5801
vn -1.0000 -0.0000 -0.0000
vn -0.0005 -0.9097 -0.4153
vn -0.2061 0.1902 0.9599
vn -0.2155 -0.9252 -0.3123
vn -0.9510 -0.3043 0.0544
vn -0.0005 0.8145 -0.5801
vn -0.0005 0.0952 0.9955
vn -0.0005 -0.0952 -0.9955
vn 0.0232 0.3327 0.9427
vn -0.3135 0.6965 -0.6455
vn -0.2099 0.9261 0.3136
vn -0.9938 0.1062 -0.0334
vn -0.9913 0.0315 -0.1280
vn -0.9940 -0.0702 -0.0840
vn -0.9905 0.0015 0.1373
vn -0.9945 0.0682 0.0794
vn -0.9704 -0.2374 -0.0441
vn -0.9704 0.2374 0.0441
vn -0.9913 -0.0315 0.1280
vn -0.9905 -0.0015 -0.1373
vn -0.9323 -0.0799 0.3527
vn -0.9255 -0.0892 -0.3680
vn -0.9323 0.0799 -0.3527
vn -0.9633 -0.1268 0.2365
vn -0.9633 0.1268 -0.2365
vn -0.9255 0.0892 0.3680
vn -0.9510 0.3043 -0.0544
vn -0.7348 -0.6513 0.1895
vn -0.8980 -0.3660 -0.2443
vn -0.8980 0.3660 0.2443
vn -0.9089 0.3432 0.2366
vn -0.9089 -0.3432 -0.2366
vn -0.9089 0.0333 -0.4156
vn -0.9089 0.3766 -0.1789
vn -0.9089 -0.3766 0.1789
vn -0.9090 -0.0329 0.4155
vn -0.7980 -0.5812 0.1597
vn -0.7994 -0.1478 0.5824
vn -0.8022 0.4375 0.4064
vn -0.7887 -0.0521 0.6125
vn -0.8071 0.5568 -0.1964
vn -0.7998 0.1440 -0.5827
vn -0.7989 -0.4308 -0.4196
vn -0.8875 -0.4586 -0.0444
vn -0.8659 -0.2219 -0.4483
vn -0.8911 0.3644 0.2705
vn -0.6294 -0.7366 -0.2475
vn -0.5686 0.5030 0.6509
vn -0.9357 0.0665 0.3465
vn -0.5844 0.4949 -0.6430
vn -0.5844 -0.4949 0.6430
vn -0.8587 0.1915 -0.4753
vn -0.5606 -0.5069 -0.6548
vn -0.3325 -0.0970 0.9381
vn -0.9357 -0.0665 -0.3465
vn -0.7348 0.6513 0.1895
vn -0.8587 -0.1915 0.4753
vn -0.3325 0.0970 -0.9381
vn -0.9981 0.0349 0.0511
vn -0.9979 -0.0366 -0.0529
vn -0.9981 -0.0349 0.0511
vn -0.9988 -0.0000 -0.0481
vn -0.9988 -0.0000 0.0481
vn -0.9979 0.0366 -0.0529
vn -0.9938 0.1107 -0.0114
vn -0.9938 -0.1107 -0.0114
vn -0.9985 -0.0533 0.0152
vn -0.9905 0.1168 -0.0730
vn -0.9985 0.0533 0.0152
vn -0.0262 -0.5628 0.8262
vn -0.9915 -0.1068 0.0741
vn 0.0043 0.2964 -0.9551
vn -0.0252 -0.8347 0.5501
vn -0.0162 0.9609 -0.2764
vn -0.0212 0.1177 0.9928
vn 0.0043 0.2964 0.9551
vn -0.0162 -0.9609 -0.2764
vn -0.0000 -1.0000 0.0001
vn -0.0182 0.8147 -0.5796
vn -0.0252 -0.5501 -0.8347
vn -0.0262 0.5628 0.8262
vn -0.0252 0.5501 -0.8347
vn -0.0212 -0.1177 -0.9928
vn -0.0212 -0.1177 0.9928
vn -0.0212 0.1177 -0.9928
vn -0.0182 -0.8147 -0.5796
vn 0.0130 -0.9715 0.2369
vn -0.0000 1.0000 0.0001
vn -0.0252 0.8347 0.5501
vn 0.0043 -0.2964 0.9551
vn -0.9998 -0.0000 -0.0203
vn 0.0130 0.9715 0.2369
vn 0.0043 -0.2964 -0.9551
vn 0.8458 -0.4847 -0.2229
vn 0.8918 -0.0793 -0.4454
vn 0.8905 -0.4482 0.0780
vn 0.8916 0.0795 0.4458
vn 0.8905 0.4482 -0.0780
vn 0.9638 -0.2358 0.1245
vn 0.9663 -0.0297 0.2556
vn 0.9663 0.2065 0.1535
vn 0.8898 -0.1574 0.4283
vn 0.8899 0.2922 0.3504
vn 0.9663 -0.2362 0.1020
vn 0.9638 0.0101 -0.2664
vn 0.8898 -0.2922 -0.3505
vn 0.9663 -0.2065 -0.1535
vn 0.9663 0.2362 -0.1020
vn 0.9638 0.2257 0.1420
vn 0.9638 0.2358 -0.1245
vn 0.9638 -0.2257 -0.1420
vn 0.8909 -0.4272 -0.1541
vn 0.8909 0.4272 0.1541
vn 0.9663 0.0297 -0.2556
vn 0.8918 -0.3461 0.2914
vn 0.8898 0.1574 -0.4283
vn 0.8918 0.3461 -0.2914
vn 0.9638 -0.0101 0.2664
vn 0.9244 0.3244 -0.2009
vn 0.9244 -0.0118 -0.3814
vn 0.9300 0.0133 0.3672
vn 0.9244 -0.3244 0.2009
vn 0.9045 -0.3542 -0.2374
vn 0.9045 0.3542 0.2374
vn 0.8020 -0.5293 -0.2769
vn 0.7998 0.5757 -0.1701
vn 0.7942 0.1668 -0.5843
vn 0.8022 0.0011 -0.5970
vn 0.7918 -0.5949 0.1385
vn 0.8108 -0.1303 0.5707
vn 0.7938 0.4216 0.4384
vn 0.8081 0.4919 -0.3242
vn 0.8070 -0.4897 0.3301
vn 0.8019 0.0294 0.5967
vn 0.7981 0.5424 0.2622
vn 0.8685 0.2046 0.4515
vn 0.5264 -0.3951 -0.7529
vn 0.8717 -0.1904 -0.4516
vn 0.8921 -0.2799 0.3548
vn 0.8754 0.3044 -0.3755
vn 0.9927 0.0210 -0.1188
vn 0.9950 -0.0910 0.0419
vn 0.6850 -0.3044 0.6619
vn 0.7252 -0.0842 -0.6834
vn 0.5282 0.3965 0.7508
vn 0.1531 -0.8822 -0.4453
vn 0.2577 0.8503 0.4589
vn 0.7488 -0.6586 0.0738
vn 0.6850 0.3044 -0.6619
vn 0.5052 0.1057 -0.8565
vn 0.1546 -0.8694 0.4692
vn 0.7252 0.0842 0.6834
vn 0.6395 0.7674 0.0460
vn -0.0610 0.8911 -0.4498
vn 0.5052 -0.1057 0.8565
vn 0.9975 -0.0098 -0.0705
vn 0.9957 -0.0551 -0.0745
vn 0.9957 0.0551 0.0745
vn 0.9957 0.0551 -0.0745
vn 0.9975 -0.0098 0.0705
vn 0.9975 0.0098 -0.0705
vn 0.9981 -0.0546 -0.0271
vn 0.9967 0.0813 -0.0048
vn 0.9957 -0.0551 0.0745
vn 0.9977 -0.0617 0.0298
vn 0.9977 0.0617 0.0298
vn 0.9981 0.0546 -0.0271
vn 0.9975 0.0098 0.0705
vn -0.0011 0.5894 -0.8079
vn 0.9967 -0.0813 -0.0048
vn -0.0325 -0.2963 0.9546
vn -0.0061 -0.1365 -0.9906
vn -0.0342 0.8187 -0.5732
vn -0.0267 -0.9547 0.2963
vn -0.0325 -0.2963 -0.9546
vn 0.0003 0.9965 0.0836
vn 0.0017 0.5848 0.8112
vn -0.0267 0.9547 0.2963
vn -0.0381 -0.8095 0.5858
vn -0.0011 -0.5894 -0.8079
vn 0.0017 -0.5848 0.8112
vn -0.0061 0.1365 0.9906
vn -0.0061 0.1365 -0.9906
vn -0.0061 -0.1365 0.9906
vn 0.0003 -0.9965 0.0836
vn -0.0244 0.9561 -0.2919
vn 0.0740 -0.6158 0.7844
vn -0.0381 0.8095 0.5858
vn -0.0325 0.2963 -0.9546
vn -0.0342 -0.8187 -0.5732
vn -0.0244 -0.9561 -0.2919
vn -0.0325 0.2963 0.9546
vn 1.0000 0.0035 0.0005
vn -0.3641 -0.4092 -0.8367
vn -0.0568 -0.2459 -0.9676
vn 0.2286 0.8887 0.3975
vn 0.2489 0.6250 -0.7398
vn -0.0568 0.2459 0.9676
vn 0.8430 -0.4834 -0.2360
vn -0.1026 0.5586 0.8231
vn 0.1126 0.7494 -0.6525
vn 0.2687 -0.4800 -0.8351
vn -0.3211 0.9436 0.0809
vn -0.1026 -0.5586 -0.8231
vn 0.2701 -0.9628 -0.0032
vn 0.1126 -0.7494 0.6525
vn 0.3031 0.9509 0.0626
vn 0.5044 -0.6337 0.5865
vn -0.2787 -0.9600 -0.0270
vn 0.2489 -0.6250 0.7398
vn -0.2729 0.5014 -0.8210
vn -0.2729 -0.5014 0.8210
vn -0.5322 0.7519 -0.3891
vn -0.9641 -0.0746 0.2550
vn 0.0925 -0.2589 -0.9615
vn 0.0740 0.6158 -0.7844
vn -0.1016 0.9922 -0.0726
vn -0.0598 -0.9611 -0.2696
vn 0.2687 0.4800 0.8351
vn 0.0813 0.9920 -0.0965
vn 0.0925 0.2589 0.9615
vn -0.9559 -0.2783 0.0937
vn 0.2687 0.4832 -0.8332
vn 0.2633 -0.9508 -0.1630
vn -0.9560 0.2781 -0.0936
vn -0.5322 -0.7519 0.3891
vn -0.1822 0.6143 0.7677
vn -0.9641 0.0746 -0.2550
vn -0.3942 0.4047 0.8251
vn -0.3025 -0.9486 -0.0929
vt 0.000000 0.000000
s 0
usemtl rin
f 23/1/1 24/1/1 106/1/1
f 22/1/2 26/1/2 3/1/2
f 13/1/3 18/1/3 102/1/3
f 22/1/4 8/1/4 114/1/4
f 23/1/5 21/1/5 112/1/5
f 25/1/6 43/1/6 127/1/6
f 27/1/7 36/1/7 124/1/7
f 31/1/8 32/1/8 24/1/8
f 30/1/9 41/1/9 121/1/9
f 28/1/10 34/1/10 26/1/10
f 29/1/11 42/1/11 122/1/11
f 35/1/12 47/1/12 50/1/12
f 37/1/13 48/1/13 55/1/13
f 35/1/14 50/1/14 34/1/14
f 40/1/15 52/1/15 32/1/15
f 38/1/16 51/1/16 36/1/16
f 39/1/17 44/1/17 53/1/17
f 33/1/18 45/1/18 56/1/18
f 38/1/19 46/1/19 51/1/19
f 33/1/20 56/1/20 43/1/20
f 40/1/21 49/1/21 52/1/21
f 39/1/22 53/1/22 41/1/22
f 44/1/23 54/1/23 53/1/23
f 47/1/24 56/1/24 50/1/24
f 48/1/25 50/1/25 54/1/25
f 55/1/26 54/1/26 44/1/26
f 51/1/27 56/1/27 45/1/27
f 53/1/28 54/1/28 52/1/28
f 50/1/29 56/1/29 54/1/29
f 17/1/30 59/1/30 15/1/30
f 2/1/31 58/1/31 65/1/31
f 6/1/32 61/1/32 1/1/32
f 8/1/33 58/1/33 2/1/33
f 21/1/34 63/1/34 13/1/34
f 58/1/35 67/1/35 65/1/35
f 64/1/36 81/1/36 78/1/36
f 66/1/37 82/1/37 70/1/37
f 66/1/38 70/1/38 63/1/38
f 69/1/39 83/1/39 67/1/39
f 70/1/40 94/1/40 73/1/40
f 120/1/41 128/1/41 106/1/41
f 121/1/42 117/1/42 102/1/42
f 122/1/43 123/1/43 19/1/43
f 124/1/44 118/1/44 7/1/44
f 126/1/45 129/1/45 3/1/45
f 127/1/46 119/1/46 20/1/46
f 132/1/47 135/1/47 127/1/47
f 125/1/48 133/1/48 118/1/48
f 120/1/49 131/1/49 128/1/49
f 126/1/50 130/1/50 129/1/50
f 137/1/51 136/1/51 121/1/51
f 139/1/52 140/1/52 122/1/52
f 142/1/53 140/1/53 139/1/53
f 151/1/54 130/1/54 138/1/54
f 144/1/55 131/1/55 134/1/55
f 146/1/56 133/1/56 125/1/56
f 145/1/57 135/1/57 132/1/57
f 153/1/58 136/1/58 137/1/58
f 144/1/59 153/1/59 150/1/59
f 143/1/60 152/1/60 151/1/60
f 146/1/61 153/1/61 144/1/61
f 115/1/62 162/1/62 97/1/62
f 113/1/63 156/1/63 105/1/63
f 154/1/64 109/1/64 110/1/64
f 162/1/65 115/1/65 107/1/65
f 96/1/66 161/1/66 111/1/66
f 100/1/67 164/1/67 104/1/67
f 155/1/68 98/1/68 99/1/68
f 95/1/69 157/1/69 116/1/69
f 163/1/70 108/1/70 105/1/70
f 98/1/71 155/1/71 103/1/71
f 167/1/72 101/1/72 103/1/72
f 111/1/73 161/1/73 110/1/73
f 5/1/84 19/1/84 99/1/84
f 30/1/85 4/1/85 117/1/85
f 8/1/86 20/1/86 96/1/86
f 27/1/87 10/1/87 118/1/87
f 25/1/89 9/1/89 119/1/89
f 11/1/90 7/1/90 107/1/90
f 15/1/91 3/1/91 109/1/91
f 121/1/92 102/1/92 18/1/92 30/1/92
f 29/1/93 14/1/93 123/1/93
f 31/1/94 112/1/94 128/1/94
f 28/1/95 114/1/95 129/1/95
f 48/1/96 143/1/96 151/1/96
f 13/1/97 102/1/97 101/1/97
f 1/1/98 106/1/98 108/1/98
f 2/1/99 20/1/99 8/1/99
f 12/1/100 7/1/100 11/1/100
f 23/1/101 106/1/101 1/1/101
f 17/1/102 14/1/102 16/1/102
f 22/1/103 3/1/103 15/1/103
f 23/1/104 112/1/104 24/1/104
f 22/1/105 114/1/105 26/1/105
f 16/1/106 19/1/106 5/1/106
f 6/1/107 10/1/107 12/1/107
f 18/1/108 4/1/108 30/1/108
f 12/1/109 10/1/109 27/1/109
f 2/1/110 9/1/110 25/1/110
f 122/1/111 19/1/111 16/1/111 29/1/111
f 124/1/112 7/1/112 12/1/112 27/1/112
f 16/1/113 14/1/113 29/1/113
f 127/1/114 20/1/114 2/1/114 25/1/114
f 63/1/115 57/1/115 18/1/115 13/1/115
f 24/1/116 112/1/116 31/1/116
f 26/1/117 114/1/117 28/1/117
f 28/1/118 35/1/118 34/1/118
f 31/1/119 40/1/119 32/1/119
f 27/1/120 38/1/120 36/1/120
f 25/1/121 33/1/121 43/1/121
f 30/1/122 39/1/122 41/1/122
f 29/1/123 37/1/123 42/1/123
f 41/1/124 53/1/124 49/1/124
f 42/1/125 55/1/125 44/1/125
f 34/1/126 50/1/126 48/1/126
f 42/1/127 37/1/127 55/1/127
f 43/1/128 56/1/128 47/1/128
f 36/1/129 51/1/129 45/1/129
f 32/1/130 52/1/130 46/1/130
f 49/1/131 53/1/131 52/1/131
f 51/1/132 46/1/132 52/1/132
f 55/1/133 48/1/133 54/1/133
f 66/1/134 63/1/134 21/1/134 23/1/134
f 64/1/135 22/1/135 15/1/135 59/1/135
f 59/1/136 17/1/136 16/1/136 71/1/136
f 60/1/137 11/1/137 2/1/137 65/1/137
f 62/1/138 5/1/138 18/1/138 57/1/138
f 12/1/139 11/1/139 60/1/139
f 66/1/140 23/1/140 1/1/140 61/1/140
f 16/1/141 62/1/141 71/1/141
f 61/1/142 6/1/142 12/1/142 74/1/142
f 64/1/143 58/1/143 8/1/143 22/1/143
f 16/1/144 5/1/144 62/1/144
f 12/1/145 60/1/145 74/1/145
f 81/1/146 64/1/146 59/1/146 71/1/146
f 82/1/147 66/1/147 61/1/147 74/1/147
f 80/1/148 79/1/148 62/1/148 57/1/148
f 75/1/149 74/1/149 60/1/149 72/1/149
f 76/1/150 71/1/150 62/1/150 79/1/150
f 77/1/151 72/1/151 60/1/151 65/1/151
f 58/1/152 69/1/152 67/1/152
f 63/1/153 70/1/153 73/1/153
f 68/1/154 57/1/154 63/1/154 73/1/154
f 65/1/155 67/1/155 77/1/155
f 69/1/156 58/1/156 64/1/156 78/1/156
f 182/1/157 72/1/157 77/1/157 90/1/157
f 57/1/158 68/1/158 80/1/158
f 79/1/159 93/1/159 85/1/159
f 90/1/160 77/1/160 67/1/160 185/1/160
f 183/1/161 68/1/161 73/1/161 184/1/161
f 89/1/162 74/1/162 75/1/162 186/1/162
f 74/1/163 89/1/163 91/1/163
f 84/1/164 69/1/164 78/1/164 92/1/164
f 69/1/165 84/1/165 83/1/165
f 188/1/166 80/1/166 68/1/166 183/1/166
f 190/1/167 81/1/167 71/1/167 189/1/167
f 191/1/168 82/1/168 74/1/168 91/1/168
f 93/1/169 79/1/169 80/1/169 188/1/169
f 87/1/170 71/1/170 76/1/170 192/1/170
f 186/1/171 75/1/171 72/1/171 88/1/171
f 192/1/172 76/1/172 79/1/172 85/1/172
f 92/1/173 78/1/173 81/1/173 190/1/173
f 67/1/174 83/1/174 185/1/174
f 73/1/175 94/1/175 184/1/175
f 86/1/176 70/1/176 82/1/176 191/1/176
f 72/1/177 182/1/177 88/1/177
f 51/1/178 52/1/178 54/1/178 56/1/178
f 70/1/179 86/1/179 94/1/179
f 71/1/180 87/1/180 189/1/180
f 145/1/181 141/1/181 151/1/181 152/1/181
f 116/1/182 14/1/182 95/1/182
f 96/1/183 20/1/183 97/1/183
f 104/1/184 10/1/184 100/1/184
f 101/1/185 102/1/185 103/1/185
f 119/1/186 9/1/186 97/1/186
f 104/1/187 7/1/187 118/1/187
f 105/1/188 106/1/188 128/1/188
f 107/1/189 7/1/189 104/1/189
f 108/1/190 106/1/190 105/1/190
f 97/1/191 20/1/191 119/1/191
f 123/1/192 14/1/192 116/1/192
f 109/1/193 3/1/193 110/1/193
f 110/1/194 3/1/194 129/1/194
f 103/1/195 102/1/195 117/1/195
f 128/1/196 112/1/196 105/1/196
f 117/1/197 4/1/197 103/1/197
f 129/1/198 114/1/198 110/1/198
f 110/1/199 114/1/199 111/1/199
f 105/1/200 112/1/200 113/1/200
f 116/1/201 19/1/201 123/1/201
f 97/1/202 9/1/202 115/1/202
f 99/1/203 19/1/203 116/1/203
f 103/1/204 4/1/204 98/1/204
f 118/1/205 10/1/205 104/1/205
f 121/1/206 136/1/206 117/1/206
f 122/1/207 140/1/207 123/1/207
f 124/1/208 125/1/208 118/1/208
f 127/1/209 135/1/209 119/1/209
f 138/1/210 130/1/210 126/1/210
f 134/1/211 131/1/211 120/1/211
f 130/1/212 151/1/212 141/1/212
f 150/1/213 153/1/213 137/1/213
f 147/1/214 142/1/214 139/1/214
f 140/1/215 142/1/215 143/1/215
f 141/1/216 145/1/216 132/1/216
f 148/1/217 146/1/217 125/1/217
f 149/1/218 144/1/218 134/1/218
f 136/1/219 153/1/219 147/1/219
f 135/1/220 145/1/220 148/1/220
f 133/1/221 146/1/221 149/1/221
f 131/1/222 144/1/222 150/1/222
f 146/1/223 144/1/223 149/1/223
f 95/1/224 109/1/224 154/1/224 157/1/224
f 142/1/225 152/1/225 143/1/225
f 145/1/226 146/1/226 148/1/226
f 153/1/227 142/1/227 147/1/227
f 153/1/228 152/1/228 142/1/228
f 152/1/229 146/1/229 145/1/229
f 107/1/230 104/1/230 160/1/230 162/1/230
f 116/1/231 157/1/231 158/1/231
f 100/1/232 108/1/232 163/1/232 164/1/232
f 110/1/233 161/1/233 154/1/233
f 105/1/234 156/1/234 163/1/234
f 96/1/235 97/1/235 159/1/235 161/1/235
f 99/1/236 116/1/236 166/1/236 155/1/236
f 116/1/237 158/1/237 166/1/237
f 97/1/238 162/1/238 159/1/238
f 104/1/239 164/1/239 165/1/239
f 156/1/240 113/1/240 101/1/240 167/1/240
f 103/1/241 155/1/241 167/1/241
f 104/1/242 165/1/242 160/1/242
f 115/1/274 2/1/274 11/1/274 107/1/274
f 152/1/280 153/1/280 146/1/280
f 95/1/281 17/1/281 15/1/281 109/1/281
f 41/1/282 137/1/282 121/1/282
f 36/1/283 125/1/283 124/1/283
f 141/1/284 47/1/284 35/1/284 130/1/284
f 43/1/285 132/1/285 127/1/285
f 8/1/286 111/1/286 114/1/286
f 117/1/287 136/1/287 39/1/287 30/1/287
f 120/1/288 24/1/288 32/1/288 134/1/288
f 150/1/289 137/1/289 41/1/289 49/1/289
f 113/1/290 21/1/290 13/1/290 101/1/290
f 119/1/291 135/1/291 33/1/291 25/1/291
f 147/1/292 139/1/292 42/1/292 44/1/292
f 126/1/293 26/1/293 34/1/293 138/1/293
f 143/1/294 48/1/294 37/1/294 140/1/294
f 151/1/295 138/1/295 34/1/295 48/1/295
f 118/1/296 133/1/296 38/1/296 27/1/296
f 150/1/297 49/1/297 40/1/297 131/1/297
f 129/1/298 130/1/298 35/1/298 28/1/298
f 128/1/299 131/1/299 40/1/299 31/1/299
f 24/1/300 120/1/300 106/1/300
f 18/1/301 98/1/301 4/1/301
f 148/1/302 45/1/302 33/1/302 135/1/302
f 98/1/303 18/1/303 5/1/303 99/1/303
f 123/1/304 140/1/304 37/1/304 29/1/304
f 42/1/305 139/1/305 122/1/305
f 141/1/306 132/1/306 43/1/306 47/1/306
f 148/1/307 125/1/307 36/1/307 45/1/307
f 147/1/308 44/1/308 39/1/308 136/1/308
f 6/1/309 100/1/309 10/1/309
f 149/1/310 134/1/310 32/1/310 46/1/310
f 149/1/311 46/1/311 38/1/311 133/1/311
f 17/1/312 95/1/312 14/1/312
f 26/1/313 126/1/313 3/1/313
f 21/1/314 113/1/314 112/1/314
f 2/1/315 115/1/315 9/1/315
f 108/1/316 100/1/316 6/1/316 1/1/316
f 8/1/317 96/1/317 111/1/317
usemtl caucho
f 166/1/74 170/1/74 155/1/74
f 160/1/75 175/1/75 162/1/75
f 177/1/76 161/1/76 159/1/76
f 176/1/77 156/1/77 167/1/77
f 180/1/78 164/1/78 163/1/78
f 171/1/79 157/1/79 154/1/79
f 92/1/80 168/1/80 179/1/80
f 185/1/81 177/1/81 178/1/81
f 86/1/82 169/1/82 176/1/82
f 183/1/83 174/1/83 181/1/83
f 84/1/88 187/1/88 83/1/88
f 86/1/88 193/1/88 94/1/88
f 158/1/243 157/1/243 171/1/243 172/1/243
f 154/1/244 168/1/244 171/1/244
f 163/1/245 169/1/245 180/1/245
f 170/1/246 181/1/246 155/1/246
f 175/1/247 160/1/247 165/1/247 173/1/247
f 170/1/248 166/1/248 158/1/248 172/1/248
f 168/1/249 154/1/249 161/1/249 179/1/249
f 174/1/250 176/1/250 167/1/250
f 175/1/251 178/1/251 162/1/251
f 159/1/252 162/1/252 178/1/252 177/1/252
f 169/1/253 163/1/253 156/1/253 176/1/253
f 167/1/254 155/1/254 181/1/254 174/1/254
f 165/1/255 164/1/255 180/1/255 173/1/255
f 178/1/256 175/1/256 182/1/256 90/1/256
f 161/1/257 177/1/257 179/1/257
f 85/1/258 93/1/258 170/1/258
f 173/1/259 180/1/259 89/1/259 186/1/259
f 90/1/260 185/1/260 178/1/260
f 183/1/261 184/1/261 174/1/261
f 91/1/262 89/1/262 180/1/262
f 179/1/263 177/1/263 187/1/263 84/1/263
f 171/1/264 168/1/264 190/1/264 189/1/264
f 84/1/265 92/1/265 179/1/265
f 188/1/266 183/1/266 181/1/266
f 180/1/267 169/1/267 191/1/267 91/1/267
f 181/1/268 170/1/268 93/1/268 188/1/268
f 172/1/269 171/1/269 87/1/269 192/1/269
f 175/1/270 173/1/270 186/1/270 88/1/270
f 170/1/271 172/1/271 192/1/271 85/1/271
f 176/1/272 174/1/272 184/1/272 193/1/272
f 185/1/273 187/1/273 177/1/273
f 92/1/275 190/1/275 168/1/275
f 88/1/276 182/1/276 175/1/276
f 86/1/277 191/1/277 169/1/277
f 193/1/278 86/1/278 176/1/278
f 189/1/279 87/1/279 171/1/279
f 184/1/88 94/1/88 193/1/88
f 83/1/88 187/1/88 185/1/88
